<svg width="389" height="248" viewBox="0 0 389 248" fill="none" xmlns="http://www.w3.org/2000/svg">
<g filter="url(#filter0_dd_3_197)">
<g clip-path="url(#clip0_3_197)">
<rect x="3.91357" y="2.91357" width="381" height="240" rx="16" fill="white"/>
<path d="M17.6133 27.3299H20.3253C22.1182 27.3299 23.4552 27.6262 24.3364 28.2187C25.5367 29.024 26.1368 30.2167 26.1368 31.7968C26.1368 32.8755 25.8253 33.7947 25.2024 34.5544C24.5947 35.314 23.7818 35.8078 22.7639 36.0357L27.5042 42.5309H24.701L20.3481 36.3092H19.9379V42.5309H17.6133V27.3299ZM19.9379 29.4722V34.3037H20.6672C20.8647 34.3037 21.0622 34.2961 21.2597 34.2809C21.4572 34.2657 21.7231 34.2125 22.0574 34.1213C22.4068 34.0302 22.7031 33.9086 22.9462 33.7567C23.2045 33.5896 23.4248 33.3389 23.6071 33.0046C23.8046 32.6704 23.9034 32.2754 23.9034 31.8196C23.9034 30.2546 22.8474 29.4722 20.7356 29.4722H19.9379ZM36.1001 39.2947L37.9689 40.343C37.5435 41.1027 37.0041 41.6876 36.3508 42.0978C35.6063 42.584 34.6643 42.8271 33.5248 42.8271C32.1878 42.8271 31.1091 42.4169 30.2887 41.5965C29.3467 40.6545 28.8757 39.4314 28.8757 37.9273C28.8757 36.3472 29.3847 35.0329 30.4026 33.9846C31.2686 33.1186 32.3398 32.6856 33.616 32.6856C34.8619 32.6856 35.8874 33.1034 36.6927 33.939C37.5891 34.8658 38.0373 36.218 38.0373 37.9956V38.2691H31.1547C31.2155 39.0744 31.4889 39.7201 31.9751 40.2063C32.3853 40.6165 32.9551 40.8216 33.6844 40.8216C34.2769 40.8216 34.7859 40.6621 35.2113 40.343C35.5608 40.0695 35.857 39.7201 36.1001 39.2947ZM31.3142 36.4459H35.7583C35.6671 35.9142 35.4392 35.4811 35.0746 35.1469C34.6795 34.7823 34.1782 34.5999 33.5704 34.5999C32.9323 34.5999 32.4081 34.805 31.9979 35.2153C31.6637 35.5191 31.4358 35.9293 31.3142 36.4459ZM47.3908 34.053V32.9363H49.6242V42.5309H47.3908V41.5281C46.6463 42.3941 45.6891 42.8271 44.5192 42.8271C43.1063 42.8271 41.9744 42.3257 41.1235 41.323C40.2879 40.3202 39.8701 39.1199 39.8701 37.7222C39.8701 36.2028 40.3183 34.9874 41.2147 34.0758C42.1263 33.149 43.2354 32.6856 44.542 32.6856C45.7423 32.6856 46.6919 33.1414 47.3908 34.053ZM44.8155 34.6911C44.0255 34.6911 43.3797 34.9874 42.8784 35.5799C42.3922 36.1724 42.1491 36.9017 42.1491 37.7677C42.1491 38.6186 42.3922 39.3403 42.8784 39.9328C43.3797 40.5253 44.0255 40.8216 44.8155 40.8216C45.5752 40.8216 46.2133 40.5557 46.7299 40.024C47.2616 39.4922 47.5275 38.7477 47.5275 37.7905C47.5275 36.803 47.2616 36.0433 46.7299 35.5115C46.2133 34.9646 45.5752 34.6911 44.8155 34.6911ZM52.4564 25.9169H54.6898V42.5309H52.4564V25.9169ZM61.5195 34.9874H59.8103V42.5309H57.5768V34.9874H56.6425V32.9363H57.5768V29.4266H59.8103V32.9363H61.5195V34.9874ZM63.0279 32.9363H65.2613V42.5309H63.0279V32.9363ZM63.1191 29.9964C62.8456 29.7229 62.7089 29.381 62.7089 28.9708C62.7089 28.5606 62.8456 28.2187 63.1191 27.9453C63.3926 27.6718 63.7344 27.535 64.1446 27.535C64.5549 27.535 64.8967 27.6718 65.1702 27.9453C65.4437 28.2187 65.5804 28.5606 65.5804 28.9708C65.5804 29.381 65.4437 29.7229 65.1702 29.9964C64.8967 30.2698 64.5549 30.4066 64.1446 30.4066C63.7344 30.4066 63.3926 30.2698 63.1191 29.9964ZM68.08 42.5309V32.9363H70.3134V33.8251C70.9364 33.0654 71.7264 32.6856 72.6836 32.6856C73.7927 32.6856 74.6207 33.1566 75.1677 34.0986C75.821 33.1566 76.7706 32.6856 78.0164 32.6856C79.2623 32.6856 80.1739 33.187 80.7512 34.1897C81.0855 34.7671 81.2526 35.5723 81.2526 36.6055V42.5309H79.0192V37.2436C79.0192 36.4079 78.9508 35.8382 78.8141 35.5343C78.6014 34.9722 78.176 34.6911 77.5379 34.6911C76.9909 34.6911 76.5503 34.9266 76.216 35.3976C75.9274 35.8078 75.783 36.5371 75.783 37.5854V42.5309H73.5496V37.2436C73.5496 36.4079 73.4812 35.8382 73.3445 35.5343C73.1318 34.9722 72.7064 34.6911 72.0683 34.6911C71.5213 34.6911 71.0807 34.9266 70.7464 35.3976C70.4578 35.8078 70.3134 36.5371 70.3134 37.5854V42.5309H68.08ZM90.805 39.2947L92.6738 40.343C92.2484 41.1027 91.709 41.6876 91.0557 42.0978C90.3112 42.584 89.3693 42.8271 88.2298 42.8271C86.8927 42.8271 85.814 42.4169 84.9936 41.5965C84.0516 40.6545 83.5806 39.4314 83.5806 37.9273C83.5806 36.3472 84.0896 35.0329 85.1075 33.9846C85.9735 33.1186 87.0447 32.6856 88.3209 32.6856C89.5668 32.6856 90.5923 33.1034 91.3976 33.939C92.294 34.8658 92.7422 36.218 92.7422 37.9956V38.2691H85.8596C85.9204 39.0744 86.1938 39.7201 86.68 40.2063C87.0903 40.6165 87.66 40.8216 88.3893 40.8216C88.9818 40.8216 89.4908 40.6621 89.9162 40.343C90.2657 40.0695 90.5619 39.7201 90.805 39.2947ZM86.0191 36.4459H90.4632C90.372 35.9142 90.1441 35.4811 89.7795 35.1469C89.3844 34.7823 88.8831 34.5999 88.2753 34.5999C87.6372 34.5999 87.113 34.805 86.7028 35.2153C86.3686 35.5191 86.1407 35.9293 86.0191 36.4459ZM108.418 27.3299V29.5178H103.13V33.3693H108.235V35.5571H103.13V42.5309H100.806V27.3299H108.418ZM110.655 32.9363H112.889V42.5309H110.655V32.9363ZM110.747 29.9964C110.473 29.7229 110.336 29.381 110.336 28.9708C110.336 28.5606 110.473 28.2187 110.747 27.9453C111.02 27.6718 111.362 27.535 111.772 27.535C112.182 27.535 112.524 27.6718 112.798 27.9453C113.071 28.2187 113.208 28.5606 113.208 28.9708C113.208 29.381 113.071 29.7229 112.798 29.9964C112.524 30.2698 112.182 30.4066 111.772 30.4066C111.362 30.4066 111.02 30.2698 110.747 29.9964ZM122.727 33.9846V32.9363H124.96V41.756C124.96 43.0018 124.854 44.0122 124.641 44.7871C124.429 45.5771 124.011 46.2304 123.388 46.747C122.552 47.4307 121.489 47.7726 120.197 47.7726C118.891 47.7726 117.842 47.3775 117.052 46.5875C116.277 45.8126 115.806 44.8175 115.639 43.602H117.804C117.911 44.2097 118.146 44.7111 118.511 45.1061C118.921 45.5467 119.498 45.767 120.243 45.767C120.987 45.767 121.572 45.5543 121.998 45.1289C122.484 44.6579 122.727 43.8527 122.727 42.7132V41.4597C122.013 42.3713 121.04 42.8271 119.81 42.8271C118.518 42.8271 117.462 42.3941 116.642 41.5281C115.685 40.5253 115.206 39.2567 115.206 37.7222C115.206 36.1876 115.677 34.9494 116.619 34.0074C117.485 33.1262 118.571 32.6856 119.878 32.6856C121.048 32.6856 121.998 33.1186 122.727 33.9846ZM120.152 34.6911C119.468 34.6911 118.906 34.9038 118.465 35.3292C117.812 35.9369 117.485 36.7498 117.485 37.7677C117.485 38.8161 117.804 39.6213 118.442 40.1835C118.929 40.6089 119.498 40.8216 120.152 40.8216C120.896 40.8216 121.519 40.5633 122.02 40.0467C122.583 39.439 122.864 38.6869 122.864 37.7905C122.864 36.7574 122.56 35.9521 121.952 35.3748C121.496 34.919 120.896 34.6911 120.152 34.6911ZM127.792 32.9363H130.026V38.4287C130.026 39.2339 130.163 39.8112 130.436 40.1607C130.77 40.6013 131.257 40.8216 131.895 40.8216C132.533 40.8216 133.019 40.6013 133.353 40.1607C133.627 39.8112 133.763 39.2339 133.763 38.4287V32.9363H135.997V38.497C135.997 39.91 135.655 40.9583 134.971 41.642C134.181 42.4321 133.141 42.8271 131.849 42.8271C130.603 42.8271 129.593 42.4321 128.818 41.642C128.134 40.9583 127.792 39.91 127.792 38.497V32.9363ZM138.831 42.5309V32.9363H141.065V33.8023C141.353 33.468 141.665 33.2021 141.999 33.0046C142.364 32.7919 142.82 32.6856 143.367 32.6856C144.02 32.6856 144.605 32.8375 145.121 33.1414L144.21 35.1697C143.845 34.9418 143.465 34.8278 143.07 34.8278C142.478 34.8278 142.014 35.0026 141.68 35.352C141.27 35.7926 141.065 36.5295 141.065 37.5626V42.5309H138.831ZM152.409 39.2947L154.278 40.343C153.853 41.1027 153.313 41.6876 152.66 42.0978C151.915 42.584 150.973 42.8271 149.834 42.8271C148.497 42.8271 147.418 42.4169 146.598 41.5965C145.656 40.6545 145.185 39.4314 145.185 37.9273C145.185 36.3472 145.694 35.0329 146.712 33.9846C147.578 33.1186 148.649 32.6856 149.925 32.6856C151.171 32.6856 152.197 33.1034 153.002 33.939C153.898 34.8658 154.346 36.218 154.346 37.9956V38.2691H147.464C147.525 39.0744 147.798 39.7201 148.284 40.2063C148.694 40.6165 149.264 40.8216 149.993 40.8216C150.586 40.8216 151.095 40.6621 151.52 40.343C151.87 40.0695 152.166 39.7201 152.409 39.2947ZM147.623 36.4459H152.067C151.976 35.9142 151.748 35.4811 151.384 35.1469C150.989 34.7823 150.487 34.5999 149.88 34.5999C149.241 34.5999 148.717 34.805 148.307 35.2153C147.973 35.5191 147.745 35.9293 147.623 36.4459Z" fill="#7C7A81"/>
<path d="M20.9208 81.8395V70.438H18.8378V67.2149H24.714V81.8395H20.9208ZM34.7713 70.745C34.4351 70.438 34.0477 70.2845 33.6092 70.2845C33.1707 70.2845 32.7834 70.438 32.4472 70.745C32.0671 71.0666 31.7601 71.6074 31.5263 72.3675C31.2924 73.113 31.1755 73.8439 31.1755 74.5601C31.1755 75.2179 31.2851 75.9341 31.5043 76.7088C31.7382 77.4689 32.0525 78.0244 32.4472 78.3752C32.7834 78.6822 33.1707 78.8357 33.6092 78.8357C34.0477 78.8357 34.4351 78.6822 34.7713 78.3752C35.1514 78.039 35.4583 77.4982 35.6922 76.7527C35.9261 75.9926 36.043 75.269 36.043 74.582C36.043 73.895 35.9188 73.1641 35.6703 72.3894C35.4364 71.6147 35.1367 71.0666 34.7713 70.745ZM39.8143 74.5382C39.8143 77.0962 39.0907 79.0841 37.6436 80.502C36.5181 81.6129 35.1733 82.1684 33.6092 82.1684C32.0452 82.1684 30.7004 81.6129 29.5749 80.502C28.1277 79.0841 27.4042 77.0962 27.4042 74.5382C27.4042 71.9655 28.1277 69.9703 29.5749 68.5524C30.7004 67.4415 32.0452 66.886 33.6092 66.886C35.1733 66.886 36.5181 67.4415 37.6436 68.5524C39.0907 69.9703 39.8143 71.9655 39.8143 74.5382ZM39.9811 85.1065L42.7218 78.1779H46.0107L42.2395 85.1065H39.9811ZM58.465 74.1435C59.1959 74.3628 59.8244 74.7355 60.3506 75.2617C61.0961 75.9926 61.4689 76.855 61.4689 77.849C61.4689 78.9014 61.0742 79.8223 60.2849 80.6117C59.247 81.6495 57.7707 82.1684 55.8558 82.1684C53.9702 82.1684 52.5158 81.6568 51.4926 80.6336C50.6886 79.8296 50.2866 78.9014 50.2866 77.849C50.2866 77.3812 50.389 76.9062 50.5936 76.4238C50.7982 75.9268 51.054 75.5248 51.361 75.2179C51.8434 74.7355 52.4573 74.3774 53.2028 74.1435C52.6766 73.9389 52.238 73.6611 51.8872 73.3103C51.2295 72.6525 50.9006 71.8778 50.9006 70.9862C50.9006 69.9045 51.3025 68.9836 52.1065 68.2235C53.0712 67.3319 54.3722 66.886 56.0093 66.886C57.6172 66.886 58.8743 67.3538 59.7806 68.2893C60.4968 69.0055 60.8549 69.8972 60.8549 70.9642C60.8549 71.8851 60.5553 72.6452 59.956 73.2445C59.5613 73.6392 59.0643 73.9389 58.465 74.1435ZM55.9216 69.4294C55.4246 69.4294 55.0226 69.5975 54.7157 69.9337C54.4233 70.2553 54.2772 70.6281 54.2772 71.052C54.2772 71.4174 54.4306 71.7682 54.7376 72.1044C55.0446 72.426 55.4319 72.5868 55.8997 72.5868C56.3236 72.5868 56.6817 72.4406 56.974 72.1482C57.3102 71.8121 57.4783 71.4393 57.4783 71.03C57.4783 70.5623 57.3102 70.1749 56.974 69.868C56.6525 69.5756 56.3016 69.4294 55.9216 69.4294ZM55.8777 75.6783C55.4246 75.6783 55.0153 75.8464 54.6499 76.1826C54.2991 76.5334 54.1237 76.9354 54.1237 77.3885C54.1237 77.8709 54.2918 78.2802 54.628 78.6164C54.9788 78.9672 55.3954 79.1426 55.8777 79.1426C56.3601 79.1426 56.7694 78.9745 57.1056 78.6383C57.4564 78.2875 57.6318 77.8709 57.6318 77.3885C57.6318 76.9062 57.4564 76.5042 57.1056 76.1826C56.7548 75.8464 56.3455 75.6783 55.8777 75.6783ZM69.7483 81.8395H65.4508L69.5948 76.9062C69.0247 77.2131 68.3743 77.3666 67.6434 77.3666C66.3132 77.3666 65.195 76.9208 64.2887 76.0291C63.3094 75.0644 62.8197 73.8877 62.8197 72.4991C62.8197 71.0081 63.3094 69.751 64.2887 68.7278C65.4874 67.5 67.0879 66.886 69.0905 66.886C71.0638 66.886 72.6279 67.4634 73.7827 68.6182C74.7474 69.6121 75.2298 70.8181 75.2298 72.236C75.2298 73.9023 74.4916 75.6929 73.0153 77.6078L69.7483 81.8395ZM69.1344 69.8899C68.4766 69.8899 67.9138 70.1238 67.4461 70.5915C66.9637 71.0739 66.7225 71.6293 66.7225 72.2579C66.7225 72.8718 66.9564 73.398 67.4241 73.8365C67.8919 74.2751 68.462 74.4943 69.1344 74.4943C69.7775 74.4943 70.3257 74.2897 70.7788 73.8804C71.2904 73.4273 71.5462 72.8718 71.5462 72.214C71.5462 71.6001 71.3123 71.0593 70.8446 70.5915C70.3476 70.1238 69.7775 69.8899 69.1344 69.8899ZM83.8905 70.745C83.5543 70.438 83.167 70.2845 82.7284 70.2845C82.2899 70.2845 81.9026 70.438 81.5664 70.745C81.1863 71.0666 80.8794 71.6074 80.6455 72.3675C80.4116 73.113 80.2947 73.8439 80.2947 74.5601C80.2947 75.2179 80.4043 75.9341 80.6236 76.7088C80.8574 77.4689 81.1717 78.0244 81.5664 78.3752C81.9026 78.6822 82.2899 78.8357 82.7284 78.8357C83.167 78.8357 83.5543 78.6822 83.8905 78.3752C84.2706 78.039 84.5775 77.4982 84.8114 76.7527C85.0453 75.9926 85.1622 75.269 85.1622 74.582C85.1622 73.895 85.038 73.1641 84.7895 72.3894C84.5556 71.6147 84.2559 71.0666 83.8905 70.745ZM88.9335 74.5382C88.9335 77.0962 88.2099 79.0841 86.7628 80.502C85.6373 81.6129 84.2925 82.1684 82.7284 82.1684C81.1644 82.1684 79.8196 81.6129 78.6941 80.502C77.247 79.0841 76.5234 77.0962 76.5234 74.5382C76.5234 71.9655 77.247 69.9703 78.6941 68.5524C79.8196 67.4415 81.1644 66.886 82.7284 66.886C84.2925 66.886 85.6373 67.4415 86.7628 68.5524C88.2099 69.9703 88.9335 71.9655 88.9335 74.5382Z" fill="#0C0815"/>
<path d="M16.3633 227.855C16.5752 227.841 16.7835 227.771 16.9882 227.647C17.1965 227.519 17.3682 227.322 17.5034 227.055C17.518 227.026 17.5308 226.995 17.5418 226.962C17.5564 226.929 17.571 226.896 17.5856 226.863H17.9748V230.706H17.4267V227.762C17.3317 227.864 17.2239 227.952 17.1033 228.025C16.9863 228.098 16.8639 228.155 16.736 228.195C16.6081 228.232 16.4839 228.252 16.3633 228.255V227.855ZM21.2708 230.706L20.2567 229.215L19.6318 229.774V230.706H19.0837V226.501H19.6318V229.319L21.2872 227.828H21.786L20.6733 228.831L21.9176 230.706H21.2708Z" fill="#615E83"/>
<path d="M18.5694 212.248V212.621H15.9711V212.489C15.9711 212.24 15.9949 212.029 16.0424 211.853C16.0936 211.678 16.1648 211.528 16.2562 211.404C16.3475 211.276 16.4572 211.162 16.5851 211.064C16.713 210.961 16.8537 210.865 17.0071 210.773C17.1168 210.704 17.2264 210.636 17.336 210.57C17.4493 210.505 17.5535 210.432 17.6485 210.351C17.7435 210.271 17.8184 210.181 17.8732 210.083C17.9317 209.984 17.9609 209.871 17.9609 209.743C17.9609 209.721 17.9591 209.701 17.9554 209.682C17.9518 209.664 17.9481 209.646 17.9445 209.628C17.9226 209.456 17.8495 209.319 17.7252 209.217C17.6046 209.111 17.4511 209.058 17.2648 209.058C17.1076 209.058 16.9761 209.092 16.8701 209.162C16.7641 209.231 16.6837 209.328 16.6289 209.452C16.5741 209.573 16.5467 209.712 16.5467 209.869H15.9711V209.787C15.9711 209.571 16.0278 209.383 16.1411 209.222C16.2544 209.061 16.4078 208.937 16.6015 208.849C16.7952 208.762 17.0145 208.718 17.2593 208.718C17.4895 208.718 17.6996 208.758 17.8897 208.838C18.0833 208.919 18.2387 209.037 18.3556 209.195C18.4762 209.348 18.5365 209.54 18.5365 209.77C18.5365 209.946 18.5036 210.099 18.4378 210.231C18.3757 210.362 18.2916 210.479 18.1857 210.581C18.0833 210.68 17.9737 210.768 17.8568 210.845C17.7398 210.921 17.6266 210.993 17.5169 211.058C17.4877 211.073 17.4585 211.089 17.4292 211.108C17.4036 211.126 17.3781 211.142 17.3525 211.157C17.2611 211.212 17.1698 211.268 17.0784 211.327C16.9907 211.385 16.9085 211.453 16.8317 211.53C16.7587 211.603 16.6984 211.689 16.6508 211.787C16.6033 211.886 16.5759 212.001 16.5686 212.133C16.565 212.151 16.5613 212.171 16.5577 212.193C16.5577 212.211 16.5577 212.23 16.5577 212.248H18.5694ZM21.5615 212.621L20.5475 211.13L19.9226 211.689V212.621H19.3744V208.416H19.9226V211.234L21.578 209.743H22.0768L20.964 210.746L22.2083 212.621H21.5615Z" fill="#615E83"/>
<path d="M18.513 193.978C18.513 194.223 18.4508 194.428 18.3266 194.592C18.2023 194.753 18.0379 194.874 17.8333 194.954C17.6286 195.035 17.4039 195.075 17.159 195.075C16.9069 195.075 16.6767 195.033 16.4684 194.949C16.2637 194.861 16.1029 194.739 15.986 194.581C15.8691 194.421 15.8106 194.229 15.8106 194.006V193.918H16.3807C16.3807 194.181 16.4501 194.384 16.589 194.527C16.7278 194.666 16.9197 194.735 17.1645 194.735C17.3947 194.735 17.5793 194.669 17.7181 194.538C17.8607 194.402 17.9319 194.222 17.9319 193.995C17.9319 193.816 17.8899 193.67 17.8058 193.556C17.7218 193.439 17.6085 193.354 17.466 193.299C17.3235 193.244 17.1627 193.217 16.9836 193.217H16.7315V192.877H16.9836C17.1481 192.877 17.2942 192.849 17.4221 192.794C17.55 192.736 17.6505 192.652 17.7236 192.542C17.7967 192.429 17.8333 192.292 17.8333 192.131C17.8333 191.989 17.8022 191.868 17.7401 191.769C17.6816 191.667 17.5994 191.589 17.4934 191.534C17.3874 191.479 17.2632 191.452 17.1207 191.452C16.8977 191.452 16.7242 191.515 16.5999 191.643C16.4793 191.768 16.419 191.945 16.419 192.175H15.8435V192.071C15.8435 191.917 15.8782 191.782 15.9476 191.665C16.0171 191.548 16.1121 191.45 16.2327 191.369C16.3533 191.285 16.4885 191.223 16.6383 191.183C16.7918 191.139 16.9526 191.117 17.1207 191.117C17.3472 191.117 17.5592 191.156 17.7565 191.232C17.9538 191.305 18.111 191.417 18.2279 191.567C18.3485 191.716 18.4088 191.905 18.4088 192.131C18.4088 192.372 18.3412 192.566 18.206 192.712C18.0708 192.858 17.8972 192.966 17.6853 193.036C17.9191 193.101 18.1146 193.211 18.2718 193.365C18.4326 193.514 18.513 193.719 18.513 193.978ZM21.5616 195.014L20.5475 193.524L19.9226 194.083V195.014H19.3744V190.81H19.9226V193.628L21.578 192.137H22.0768L20.9641 193.14L22.2084 195.014H21.5616Z" fill="#615E83"/>
<path d="M16.1927 175.745L18.0454 173.087H18.6703V175.69H19.2623V176.107H18.6703V176.929H18.155V176.107H16.1927V175.745ZM16.6696 175.69H18.155V173.586L16.6696 175.69ZM22.5616 176.929L21.5475 175.438L20.9226 175.997V176.929H20.3744V172.725H20.9226V175.542L22.578 174.051H23.0768L21.9641 175.055L23.2084 176.929H22.5616Z" fill="#615E83"/>
<path d="M15.9113 158.846L16.1086 156.658H18.2957V157.157H16.4265L16.3169 158.303C16.4265 158.182 16.5617 158.087 16.7225 158.018C16.887 157.948 17.0624 157.914 17.2487 157.914C17.5155 157.914 17.7476 157.967 17.9449 158.073C18.1422 158.175 18.2939 158.321 18.3999 158.511C18.5095 158.701 18.5643 158.928 18.5643 159.191C18.5643 159.458 18.5058 159.695 18.3889 159.903C18.272 160.108 18.1075 160.269 17.8956 160.386C17.6873 160.503 17.4461 160.561 17.172 160.561C16.9308 160.561 16.7097 160.521 16.5087 160.441C16.3114 160.36 16.1524 160.243 16.0319 160.09C15.9149 159.936 15.8564 159.752 15.8564 159.536V159.465H16.4375C16.4375 159.702 16.5014 159.889 16.6293 160.024C16.7609 160.156 16.9473 160.221 17.1884 160.221C17.3712 160.221 17.521 160.176 17.6379 160.084C17.7585 159.993 17.8462 159.872 17.901 159.723C17.9559 159.569 17.9833 159.403 17.9833 159.224C17.9833 159.045 17.9504 158.884 17.8846 158.741C17.8188 158.599 17.7238 158.486 17.5996 158.402C17.4753 158.317 17.3218 158.275 17.1391 158.275C16.9345 158.275 16.7609 158.332 16.6184 158.445C16.4795 158.555 16.3827 158.688 16.3279 158.846H15.9113ZM21.5616 160.501L20.5475 159.01L19.9226 159.569V160.501H19.3744V156.297H19.9226V159.114L21.578 157.623H22.0768L20.9641 158.626L22.2084 160.501H21.5616Z" fill="#615E83"/>
<path d="M18.571 142.845C18.571 143.108 18.5107 143.338 18.3901 143.535C18.2695 143.729 18.105 143.877 17.8967 143.979C17.6884 144.082 17.4527 144.133 17.1896 144.133C16.8973 144.133 16.6524 144.078 16.4551 143.968C16.2578 143.855 16.1025 143.707 15.9892 143.524C15.8759 143.342 15.7955 143.139 15.748 142.916C15.7005 142.689 15.6767 142.463 15.6767 142.236C15.6767 141.812 15.7352 141.447 15.8521 141.14C15.9727 140.829 16.1445 140.59 16.3674 140.422C16.5903 140.254 16.8607 140.17 17.1787 140.17C17.4052 140.17 17.6117 140.214 17.7981 140.301C17.9881 140.385 18.1397 140.504 18.253 140.658C18.37 140.807 18.4284 140.983 18.4284 141.184V141.25H17.8638C17.8638 141.1 17.8346 140.97 17.7761 140.86C17.7177 140.747 17.6354 140.659 17.5295 140.597C17.4271 140.535 17.3066 140.504 17.1677 140.504C16.9813 140.504 16.8242 140.553 16.6963 140.652C16.572 140.751 16.4752 140.886 16.4058 141.058C16.3363 141.23 16.2888 141.423 16.2632 141.639C16.2523 141.73 16.2431 141.825 16.2358 141.924C16.2285 142.023 16.2249 142.123 16.2249 142.225C16.3199 142.068 16.4588 141.937 16.6415 141.831C16.8278 141.725 17.0361 141.67 17.2664 141.666C17.5075 141.663 17.725 141.708 17.9187 141.803C18.116 141.895 18.2731 142.028 18.3901 142.203C18.5107 142.379 18.571 142.593 18.571 142.845ZM16.2742 142.894C16.2742 143.062 16.3108 143.216 16.3838 143.355C16.4606 143.49 16.5629 143.598 16.6908 143.678C16.8224 143.755 16.974 143.793 17.1458 143.793C17.3175 143.793 17.4655 143.755 17.5898 143.678C17.7177 143.598 17.8163 143.49 17.8858 143.355C17.9589 143.216 17.9936 143.062 17.9899 142.894C17.9899 142.635 17.9132 142.423 17.7597 142.258C17.6099 142.09 17.4052 142.006 17.1458 142.006C16.9813 142.006 16.8333 142.044 16.7018 142.121C16.5702 142.198 16.4661 142.304 16.3893 142.439C16.3126 142.571 16.2742 142.722 16.2742 142.894ZM21.5615 144.073L20.5475 142.582L19.9226 143.141V144.073H19.3744V139.868H19.9226V142.686L21.578 141.195H22.0768L20.964 142.198L22.2083 144.073H21.5615Z" fill="#615E83"/>
<rect x="347.42" y="138.124" width="3.65432" height="83.1358" fill="#D9EBFF"/>
<rect x="347.42" y="193.852" width="3.65432" height="52.9877" fill="#007BFF"/>
<rect x="318.185" y="138.124" width="3.65432" height="80.3951" fill="#D9EBFF"/>
<rect x="318.197" y="213.12" width="3.53599" height="33.3938" fill="#007BFF"/>
<rect x="288.95" y="138.124" width="3.65432" height="103.235" fill="#D9EBFF"/>
<rect x="288.95" y="235.721" width="3.53599" height="10.7937" fill="#007BFF"/>
<rect x="259.716" y="138.124" width="3.65432" height="82.2222" fill="#D9EBFF"/>
<rect x="259.716" y="213.12" width="3.53599" height="33.3938" fill="#007BFF"/>
<rect x="230.481" y="138.124" width="3.65432" height="100.494" fill="#D9EBFF"/>
<rect x="230.481" y="233.054" width="3.53599" height="13.4616" fill="#007BFF"/>
<rect x="202.16" y="138.124" width="2.74074" height="95.0123" fill="#D9EBFF"/>
<rect x="201.772" y="222.375" width="3.53599" height="24.1408" fill="#007BFF"/>
<rect x="172.926" y="138.124" width="3.65432" height="63.037" fill="#D9EBFF"/>
<rect x="172.926" y="187.457" width="3.65432" height="59.3827" fill="#007BFF"/>
<rect x="143.691" y="138.124" width="3.65432" height="93.1852" fill="#D9EBFF"/>
<rect x="143.56" y="215.026" width="3.53599" height="31.4887" fill="#007BFF"/>
<rect x="114.454" y="138.073" width="3.53599" height="95.5836" fill="#D9EBFF"/>
<rect x="114.457" y="207.556" width="3.65432" height="39.284" fill="#007BFF"/>
<rect x="85.222" y="138.124" width="3.65432" height="74" fill="#D9EBFF"/>
<rect x="85.222" y="186.543" width="3.65432" height="60.2963" fill="#007BFF"/>
<rect x="55.9878" y="138.124" width="3.65432" height="81.3086" fill="#D9EBFF"/>
<rect x="56.2411" y="213.12" width="3.53599" height="33.3938" fill="#007BFF"/>
<rect x="27.7406" y="138.072" width="3.53599" height="95.5836" fill="#D9EBFF"/>
<rect x="27.6666" y="225.827" width="3.65432" height="21.0123" fill="#007BFF"/>
<path d="M23.3446 117.545C23.3446 118.32 23.1948 119.018 22.8951 119.639C22.6028 120.261 22.1752 120.75 21.6125 121.108C21.0497 121.467 20.3627 121.646 19.5514 121.646C18.7329 121.646 18.0422 121.467 17.4794 121.108C16.9167 120.75 16.4891 120.261 16.1968 119.639C15.9044 119.018 15.7582 118.32 15.7582 117.545C15.7582 116.756 15.9044 116.054 16.1968 115.441C16.4891 114.819 16.9167 114.333 17.4794 113.982C18.0422 113.624 18.7329 113.445 19.5514 113.445C20.3627 113.445 21.0497 113.624 21.6125 113.982C22.1752 114.333 22.6028 114.819 22.8951 115.441C23.1948 116.054 23.3446 116.756 23.3446 117.545ZM17.3808 117.545C17.3808 117.94 17.4173 118.327 17.4904 118.708C17.5708 119.08 17.695 119.42 17.8631 119.727C18.0385 120.027 18.2614 120.268 18.5319 120.451C18.8096 120.626 19.1494 120.714 19.5514 120.714C19.9534 120.714 20.2896 120.626 20.56 120.451C20.8377 120.268 21.0607 120.027 21.2288 119.727C21.3969 119.42 21.5174 119.08 21.5905 118.708C21.6709 118.327 21.7111 117.94 21.7111 117.545C21.7111 117.143 21.6709 116.756 21.5905 116.383C21.5174 116.011 21.3969 115.671 21.2288 115.364C21.0607 115.057 20.8377 114.816 20.56 114.64C20.2896 114.465 19.9534 114.377 19.5514 114.377C19.1494 114.377 18.8096 114.465 18.5319 114.64C18.2614 114.816 18.0385 115.057 17.8631 115.364C17.695 115.671 17.5708 116.011 17.4904 116.383C17.4173 116.756 17.3808 117.143 17.3808 117.545ZM26.0985 118.346V121.525H24.6843V115.737H25.9231L26.0985 116.69C26.2739 116.391 26.5261 116.139 26.855 115.934C27.1839 115.729 27.5749 115.627 28.028 115.627C28.5615 115.627 29.0147 115.733 29.3874 115.945C29.7675 116.149 30.0562 116.442 30.2535 116.822C30.4581 117.202 30.5605 117.659 30.5605 118.192V121.525H29.1462V118.302C29.1462 117.798 29.022 117.385 28.7735 117.063C28.525 116.741 28.145 116.581 27.6333 116.581C27.3118 116.581 27.034 116.661 26.8002 116.822C26.5736 116.983 26.3982 117.195 26.2739 117.458C26.157 117.721 26.0985 118.017 26.0985 118.346ZM32.2869 121.525V113.116H33.7011V121.525H32.2869ZM37.2525 113.818C37.2525 114.059 37.1648 114.264 36.9894 114.432C36.8213 114.6 36.6166 114.684 36.3755 114.684C36.1343 114.684 35.9296 114.6 35.7615 114.432C35.5934 114.264 35.5094 114.059 35.5094 113.818C35.5094 113.584 35.5934 113.383 35.7615 113.215C35.9296 113.047 36.1343 112.963 36.3755 112.963C36.6166 112.963 36.8213 113.047 36.9894 113.215C37.1648 113.383 37.2525 113.584 37.2525 113.818ZM35.6738 121.525V115.737H37.088V121.525H35.6738ZM40.3911 118.346V121.525H38.9768V115.737H40.2157L40.3911 116.69C40.5665 116.391 40.8186 116.139 41.1475 115.934C41.4764 115.729 41.8674 115.627 42.3206 115.627C42.8541 115.627 43.3072 115.733 43.68 115.945C44.06 116.149 44.3487 116.442 44.546 116.822C44.7507 117.202 44.853 117.659 44.853 118.192V121.525H43.4388V118.302C43.4388 117.798 43.3145 117.385 43.066 117.063C42.8175 116.741 42.4375 116.581 41.9259 116.581C41.6043 116.581 41.3266 116.661 41.0927 116.822C40.8661 116.983 40.6907 117.195 40.5665 117.458C40.4495 117.721 40.3911 118.017 40.3911 118.346ZM51.9403 119.639C51.9403 120.107 51.8087 120.487 51.5456 120.78C51.2898 121.072 50.9536 121.287 50.537 121.426C50.1278 121.565 49.6892 121.635 49.2215 121.635C48.5929 121.635 48.0484 121.514 47.588 121.273C47.1276 121.032 46.7694 120.688 46.5136 120.242C46.2651 119.797 46.1409 119.263 46.1409 118.642C46.1409 118.035 46.2615 117.505 46.5027 117.052C46.7512 116.599 47.0983 116.248 47.5441 116C47.9973 115.751 48.5272 115.627 49.1338 115.627C50.0181 115.627 50.7198 115.875 51.2387 116.372C51.7576 116.869 52.017 117.556 52.017 118.433C52.017 118.514 52.0134 118.594 52.0061 118.675C52.0061 118.755 52.0024 118.843 51.9951 118.938H47.599C47.6282 119.281 47.7013 119.606 47.8182 119.913C47.9425 120.213 48.1179 120.454 48.3444 120.637C48.5783 120.812 48.8707 120.9 49.2215 120.9C49.4919 120.9 49.7221 120.853 49.9121 120.758C50.1095 120.663 50.2593 120.52 50.3616 120.33C50.4639 120.133 50.5151 119.902 50.5151 119.639H51.9403ZM49.1338 116.361C48.8049 116.361 48.5308 116.449 48.3116 116.625C48.0996 116.793 47.9352 117.019 47.8182 117.304C47.7086 117.582 47.6392 117.885 47.6099 118.214H50.6247C50.6247 117.856 50.5736 117.538 50.4713 117.26C50.3762 116.983 50.2191 116.763 49.9999 116.603C49.7806 116.442 49.4919 116.361 49.1338 116.361ZM61.0061 121.525L60.8307 120.582C60.7576 120.772 60.626 120.948 60.436 121.108C60.2533 121.262 60.034 121.39 59.7782 121.492C59.5297 121.587 59.252 121.635 58.945 121.635C58.1192 121.635 57.5052 121.386 57.1033 120.889C56.7086 120.392 56.5113 119.727 56.5113 118.894V115.737H57.9255V118.817C57.9255 119.365 58.0314 119.815 58.2434 120.166C58.4627 120.509 58.8317 120.681 59.3507 120.681C59.6795 120.681 59.9536 120.6 60.1729 120.44C60.3921 120.279 60.5566 120.063 60.6662 119.793C60.7758 119.515 60.8307 119.212 60.8307 118.883V115.737H62.2449V121.525H61.0061ZM66.3538 120.911C66.5658 120.911 66.7595 120.882 66.9349 120.823C67.1103 120.765 67.2492 120.67 67.3515 120.538C67.4538 120.407 67.505 120.231 67.505 120.012C67.505 119.844 67.4538 119.709 67.3515 119.606C67.2565 119.497 67.1322 119.409 66.9787 119.343C66.8253 119.278 66.6535 119.226 66.4635 119.19C66.2808 119.146 66.1054 119.106 65.9373 119.069C65.6522 119.004 65.3818 118.93 65.126 118.85C64.8702 118.762 64.6436 118.653 64.4463 118.521C64.249 118.39 64.0918 118.229 63.9749 118.039C63.8653 117.849 63.8104 117.622 63.8104 117.359C63.8104 116.957 63.931 116.628 64.1722 116.372C64.4134 116.117 64.7204 115.927 65.0931 115.802C65.4732 115.678 65.8642 115.616 66.2661 115.616C66.7193 115.616 67.1395 115.678 67.5269 115.802C67.9216 115.919 68.2395 116.106 68.4807 116.361C68.7218 116.617 68.8424 116.953 68.8424 117.37V117.48H67.4611C67.4611 117.231 67.4136 117.023 67.3186 116.855C67.2236 116.687 67.0811 116.559 66.891 116.471C66.7083 116.383 66.4927 116.34 66.2442 116.34C66.0615 116.34 65.8898 116.372 65.729 116.438C65.5682 116.497 65.4366 116.588 65.3343 116.712C65.2393 116.836 65.1918 116.994 65.1918 117.184C65.1918 117.366 65.2502 117.516 65.3672 117.633C65.4841 117.743 65.6486 117.834 65.8605 117.907C66.0798 117.973 66.3319 118.039 66.617 118.105C66.8362 118.156 67.0774 118.214 67.3405 118.28C67.6109 118.338 67.8631 118.43 68.097 118.554C68.3381 118.671 68.5355 118.832 68.689 119.036C68.8424 119.234 68.9192 119.497 68.9192 119.826C68.9192 120.264 68.7949 120.615 68.5464 120.878C68.2979 121.141 67.9764 121.335 67.5817 121.459C67.1943 121.576 66.7814 121.635 66.3429 121.635C65.8751 121.635 65.4403 121.573 65.0383 121.448C64.6436 121.324 64.3257 121.123 64.0845 120.845C63.8433 120.568 63.7227 120.202 63.7227 119.749V119.606H65.126C65.126 119.87 65.1735 120.1 65.2685 120.297C65.3635 120.494 65.4987 120.648 65.6741 120.758C65.8569 120.86 66.0834 120.911 66.3538 120.911ZM75.7505 119.639C75.7505 120.107 75.6189 120.487 75.3558 120.78C75.1 121.072 74.7638 121.287 74.3472 121.426C73.9379 121.565 73.4994 121.635 73.0317 121.635C72.4031 121.635 71.8586 121.514 71.3982 121.273C70.9377 121.032 70.5796 120.688 70.3238 120.242C70.0753 119.797 69.9511 119.263 69.9511 118.642C69.9511 118.035 70.0717 117.505 70.3128 117.052C70.5613 116.599 70.9085 116.248 71.3543 116C71.8075 115.751 72.3373 115.627 72.944 115.627C73.8283 115.627 74.5299 115.875 75.0488 116.372C75.5678 116.869 75.8272 117.556 75.8272 118.433C75.8272 118.514 75.8236 118.594 75.8163 118.675C75.8163 118.755 75.8126 118.843 75.8053 118.938H71.4091C71.4384 119.281 71.5115 119.606 71.6284 119.913C71.7527 120.213 71.9281 120.454 72.1546 120.637C72.3885 120.812 72.6808 120.9 73.0317 120.9C73.3021 120.9 73.5323 120.853 73.7223 120.758C73.9197 120.663 74.0695 120.52 74.1718 120.33C74.2741 120.133 74.3253 119.902 74.3253 119.639H75.7505ZM72.944 116.361C72.6151 116.361 72.341 116.449 72.1217 116.625C71.9098 116.793 71.7453 117.019 71.6284 117.304C71.5188 117.582 71.4493 117.885 71.4201 118.214H74.4349C74.4349 117.856 74.3838 117.538 74.2814 117.26C74.1864 116.983 74.0293 116.763 73.81 116.603C73.5908 116.442 73.3021 116.361 72.944 116.361ZM80.9263 115.704V116.811C80.7289 116.76 80.5243 116.734 80.3124 116.734C80.0785 116.734 79.8483 116.767 79.6217 116.833C79.4024 116.891 79.2088 116.997 79.0407 117.151C78.8945 117.297 78.7739 117.487 78.6789 117.721C78.5912 117.947 78.5473 118.232 78.5473 118.576V121.525H77.1331V115.737H78.3719L78.5364 116.844C78.6752 116.391 78.9091 116.076 79.238 115.901C79.5669 115.718 79.914 115.627 80.2795 115.627C80.4037 115.627 80.5207 115.634 80.6303 115.649C80.7472 115.663 80.8459 115.682 80.9263 115.704ZM84.3935 120.911C84.6054 120.911 84.7991 120.882 84.9745 120.823C85.1499 120.765 85.2888 120.67 85.3911 120.538C85.4934 120.407 85.5446 120.231 85.5446 120.012C85.5446 119.844 85.4934 119.709 85.3911 119.606C85.2961 119.497 85.1719 119.409 85.0184 119.343C84.8649 119.278 84.6931 119.226 84.5031 119.19C84.3204 119.146 84.145 119.106 83.9769 119.069C83.6919 119.004 83.4214 118.93 83.1656 118.85C82.9098 118.762 82.6833 118.653 82.4859 118.521C82.2886 118.39 82.1315 118.229 82.0145 118.039C81.9049 117.849 81.8501 117.622 81.8501 117.359C81.8501 116.957 81.9707 116.628 82.2119 116.372C82.453 116.117 82.76 115.927 83.1328 115.802C83.5128 115.678 83.9038 115.616 84.3058 115.616C84.7589 115.616 85.1792 115.678 85.5665 115.802C85.9612 115.919 86.2791 116.106 86.5203 116.361C86.7615 116.617 86.8821 116.953 86.8821 117.37V117.48H85.5008C85.5008 117.231 85.4532 117.023 85.3582 116.855C85.2632 116.687 85.1207 116.559 84.9307 116.471C84.748 116.383 84.5324 116.34 84.2839 116.34C84.1011 116.34 83.9294 116.372 83.7686 116.438C83.6078 116.497 83.4763 116.588 83.3739 116.712C83.2789 116.836 83.2314 116.994 83.2314 117.184C83.2314 117.366 83.2899 117.516 83.4068 117.633C83.5238 117.743 83.6882 117.834 83.9002 117.907C84.1194 117.973 84.3716 118.039 84.6566 118.105C84.8759 118.156 85.117 118.214 85.3802 118.28C85.6506 118.338 85.9027 118.43 86.1366 118.554C86.3778 118.671 86.5751 118.832 86.7286 119.036C86.8821 119.234 86.9588 119.497 86.9588 119.826C86.9588 120.264 86.8346 120.615 86.5861 120.878C86.3376 121.141 86.016 121.335 85.6213 121.459C85.234 121.576 84.821 121.635 84.3825 121.635C83.9148 121.635 83.4799 121.573 83.0779 121.448C82.6833 121.324 82.3653 121.123 82.1242 120.845C81.883 120.568 81.7624 120.202 81.7624 119.749V119.606H83.1656C83.1656 119.87 83.2131 120.1 83.3082 120.297C83.4032 120.494 83.5384 120.648 83.7138 120.758C83.8965 120.86 84.1231 120.911 84.3935 120.911Z" fill="#1E1B39"/>
<path d="M15.3926 109.02L17.3659 103.706H18.3599L20.3259 109.02H19.4489L18.9007 107.514H16.5035L15.9407 109.02H15.3926ZM16.6862 107.024H18.7253L17.7167 104.262L16.6862 107.024ZM24.5145 107.646C24.5145 107.953 24.4317 108.213 24.266 108.428C24.1052 108.642 23.8884 108.808 23.6156 108.925C23.3427 109.037 23.043 109.093 22.7166 109.093C22.317 109.093 21.9687 109.012 21.6715 108.852C21.3791 108.686 21.1525 108.457 20.9917 108.165C20.8358 107.867 20.7579 107.519 20.7579 107.119C20.7579 106.73 20.8383 106.384 20.9991 106.082C21.1647 105.775 21.3937 105.536 21.6861 105.365C21.9784 105.195 22.3219 105.11 22.7166 105.11C23.0333 105.11 23.3305 105.166 23.6082 105.278C23.886 105.385 24.1077 105.543 24.2733 105.753C24.4439 105.962 24.5291 106.216 24.5291 106.513V106.579H23.7837C23.7837 106.374 23.7374 106.191 23.6448 106.031C23.5522 105.87 23.4255 105.745 23.2647 105.658C23.1088 105.565 22.9261 105.519 22.7166 105.519C22.5071 105.519 22.3244 105.563 22.1684 105.65C22.0174 105.738 21.8931 105.858 21.7957 106.009C21.6983 106.155 21.6252 106.325 21.5764 106.52C21.5326 106.71 21.5107 106.91 21.5107 107.119C21.5107 107.397 21.5521 107.655 21.6349 107.894C21.7177 108.128 21.8469 108.316 22.0223 108.457C22.2025 108.593 22.434 108.662 22.7166 108.662C23.043 108.662 23.2988 108.564 23.484 108.369C23.674 108.174 23.769 107.914 23.769 107.587H24.5145V107.646ZM27.5349 108.961C27.4472 109 27.3327 109.029 27.1914 109.049C27.0501 109.073 26.9112 109.086 26.7748 109.086C26.3898 109.086 26.1121 108.998 25.9416 108.822C25.7759 108.642 25.6931 108.357 25.6931 107.967V105.585H25.1742V105.183H25.6931V104.481L26.424 104.306V105.183H27.3595V105.585H26.424V107.792C26.424 107.967 26.4313 108.116 26.4459 108.238C26.4605 108.36 26.5043 108.452 26.5774 108.515C26.6505 108.579 26.7748 108.615 26.9502 108.625C27.0379 108.625 27.1329 108.62 27.2352 108.61C27.3424 108.596 27.4423 108.576 27.5349 108.552V108.961ZM29.481 103.831C29.481 103.967 29.4322 104.084 29.3348 104.181C29.2422 104.274 29.1277 104.32 28.9913 104.32C28.8597 104.32 28.7452 104.274 28.6478 104.181C28.5552 104.084 28.5089 103.967 28.5089 103.831C28.5089 103.699 28.5552 103.587 28.6478 103.494C28.7452 103.402 28.8597 103.356 28.9913 103.356C29.1277 103.356 29.2422 103.402 29.3348 103.494C29.4322 103.587 29.481 103.699 29.481 103.831ZM28.6332 109.02V105.183H29.364V109.02H28.6332ZM34.2356 105.183L32.6058 109.02H31.9334L30.3035 105.183H31.1002L32.4084 108.325L33.7459 105.183H34.2356ZM36.033 103.831C36.033 103.967 35.9843 104.084 35.8869 104.181C35.7943 104.274 35.6798 104.32 35.5434 104.32C35.4118 104.32 35.2973 104.274 35.1999 104.181C35.1073 104.084 35.061 103.967 35.061 103.831C35.061 103.699 35.1073 103.587 35.1999 103.494C35.2973 103.402 35.4118 103.356 35.5434 103.356C35.6798 103.356 35.7943 103.402 35.8869 103.494C35.9843 103.587 36.033 103.699 36.033 103.831ZM35.1852 109.02V105.183H35.9161V109.02H35.1852ZM39.3186 108.961C39.2309 109 39.1164 109.029 38.9751 109.049C38.8338 109.073 38.695 109.086 38.5585 109.086C38.1736 109.086 37.8959 108.998 37.7253 108.822C37.5597 108.642 37.4768 108.357 37.4768 107.967V105.585H36.9579V105.183H37.4768V104.481L38.2077 104.306V105.183H39.1432V105.585H38.2077V107.792C38.2077 107.967 38.215 108.116 38.2296 108.238C38.2443 108.36 38.2881 108.452 38.3612 108.515C38.4343 108.579 38.5585 108.615 38.7339 108.625C38.8216 108.625 38.9167 108.62 39.019 108.61C39.1262 108.596 39.226 108.576 39.3186 108.552V108.961ZM43.7789 105.183L41.5205 110.584H41.0162L41.5936 109.202L39.7445 105.183H40.5558L41.981 108.347L43.2892 105.183H43.7789Z" fill="#9291A5"/>
</g>
<rect x="3.45678" y="2.45678" width="381.914" height="240.914" rx="16.4568" stroke="#F5FAFF" stroke-width="0.91358"/>
</g>
<defs>
<filter id="filter0_dd_3_197" x="0" y="0" width="388.827" height="247.827" filterUnits="userSpaceOnUse" color-interpolation-filters="sRGB">
<feFlood flood-opacity="0" result="BackgroundImageFix"/>
<feColorMatrix in="SourceAlpha" type="matrix" values="0 0 0 0 0 0 0 0 0 0 0 0 0 0 0 0 0 0 127 0" result="hardAlpha"/>
<feOffset dy="1"/>
<feGaussianBlur stdDeviation="1"/>
<feColorMatrix type="matrix" values="0 0 0 0 0.0627451 0 0 0 0 0.0941176 0 0 0 0 0.156863 0 0 0 0.06 0"/>
<feBlend mode="normal" in2="BackgroundImageFix" result="effect1_dropShadow_3_197"/>
<feColorMatrix in="SourceAlpha" type="matrix" values="0 0 0 0 0 0 0 0 0 0 0 0 0 0 0 0 0 0 127 0" result="hardAlpha"/>
<feOffset dy="1"/>
<feGaussianBlur stdDeviation="1.5"/>
<feColorMatrix type="matrix" values="0 0 0 0 0.0627451 0 0 0 0 0.0941176 0 0 0 0 0.156863 0 0 0 0.1 0"/>
<feBlend mode="normal" in2="effect1_dropShadow_3_197" result="effect2_dropShadow_3_197"/>
<feBlend mode="normal" in="SourceGraphic" in2="effect2_dropShadow_3_197" result="shape"/>
</filter>
<clipPath id="clip0_3_197">
<rect x="3.91357" y="2.91357" width="381" height="240" rx="16" fill="white"/>
</clipPath>
</defs>
</svg>
