<svg width="381" height="240" viewBox="0 0 381 240" fill="none" xmlns="http://www.w3.org/2000/svg">
<g clip-path="url(#clip0_6_119)">
<g filter="url(#filter0_d_6_119)">
<rect width="381" height="240" rx="20" fill="white" stroke="#EFF0F6"/>
<g clip-path="url(#clip1_6_119)">
<path d="M30.3118 78H28.343L31.9276 67.8182H34.2045L37.794 78H35.8253L33.1058 69.9062H33.0263L30.3118 78ZM30.3764 74.0078H35.7457V75.4893H30.3764V74.0078ZM39.0556 78V70.3636H40.8006V71.6364H40.8801C41.0194 71.1955 41.258 70.8558 41.5961 70.6172C41.9374 70.3752 42.3269 70.2543 42.7644 70.2543C42.8638 70.2543 42.9748 70.2592 43.0975 70.2692C43.2234 70.2758 43.3278 70.2874 43.4107 70.304V71.9595C43.3345 71.933 43.2135 71.9098 43.0478 71.8899C42.8854 71.8667 42.7279 71.8551 42.5755 71.8551C42.2473 71.8551 41.9524 71.9264 41.6905 72.0689C41.432 72.2081 41.2282 72.402 41.079 72.6506C40.9299 72.8991 40.8553 73.1858 40.8553 73.5107V78H39.0556ZM48.8297 70.3636V71.7557H44.4398V70.3636H48.8297ZM45.5236 68.5341H47.3233V75.7031C47.3233 75.9451 47.3598 76.1307 47.4327 76.2599C47.5089 76.3859 47.6084 76.4721 47.731 76.5185C47.8536 76.5649 47.9895 76.5881 48.1387 76.5881C48.2514 76.5881 48.3541 76.5798 48.4469 76.5632C48.543 76.5466 48.6159 76.5317 48.6657 76.5185L48.9689 77.9254C48.8728 77.9586 48.7353 77.995 48.5563 78.0348C48.3806 78.0746 48.1652 78.0978 47.91 78.1044C47.4592 78.1177 47.0532 78.0497 46.6919 77.9006C46.3307 77.7481 46.044 77.5128 45.8319 77.1946C45.623 76.8764 45.5203 76.4787 45.5236 76.0014V68.5341ZM50.3349 78V70.3636H52.1346V78H50.3349ZM51.2397 69.2798C50.9547 69.2798 50.7094 69.1854 50.5039 68.9964C50.2984 68.8042 50.1957 68.5739 50.1957 68.3054C50.1957 68.0336 50.2984 67.8033 50.5039 67.6143C50.7094 67.4221 50.9547 67.326 51.2397 67.326C51.5281 67.326 51.7733 67.4221 51.9755 67.6143C52.181 67.8033 52.2837 68.0336 52.2837 68.3054C52.2837 68.5739 52.181 68.8042 51.9755 68.9964C51.7733 69.1854 51.5281 69.2798 51.2397 69.2798ZM57.3162 78.1491C56.5539 78.1491 55.8993 77.9818 55.3525 77.647C54.8089 77.3123 54.3896 76.8499 54.0946 76.2599C53.803 75.6667 53.6571 74.9839 53.6571 74.2116C53.6571 73.4361 53.8063 72.7517 54.1046 72.1584C54.4029 71.5618 54.8238 71.0978 55.3674 70.7663C55.9142 70.4316 56.5605 70.2642 57.3063 70.2642C57.9261 70.2642 58.4746 70.3786 58.9519 70.6072C59.4325 70.8326 59.8153 71.1525 60.1003 71.5668C60.3854 71.9777 60.5478 72.4583 60.5875 73.0085H58.8674C58.7978 72.6406 58.632 72.334 58.3702 72.0888C58.1117 71.8402 57.7653 71.7159 57.3311 71.7159C56.9632 71.7159 56.6401 71.8153 56.3617 72.0142C56.0833 72.2098 55.8662 72.4915 55.7104 72.8594C55.5579 73.2273 55.4817 73.6681 55.4817 74.1818C55.4817 74.7022 55.5579 75.1496 55.7104 75.5241C55.8629 75.8954 56.0766 76.1821 56.3517 76.3842C56.6301 76.5831 56.9566 76.6825 57.3311 76.6825C57.5963 76.6825 57.8333 76.6328 58.0421 76.5334C58.2542 76.4306 58.4315 76.2831 58.574 76.0909C58.7166 75.8987 58.8143 75.665 58.8674 75.3899H60.5875C60.5444 75.9302 60.3854 76.4091 60.1103 76.8267C59.8352 77.241 59.4606 77.5658 58.9867 77.8011C58.5127 78.0331 57.9559 78.1491 57.3162 78.1491ZM63.8651 67.8182V78H62.0653V67.8182H63.8651ZM69.0964 78.1491C68.3308 78.1491 67.6696 77.9901 67.1127 77.6719C66.5592 77.3504 66.1333 76.8963 65.835 76.3097C65.5368 75.7197 65.3876 75.0253 65.3876 74.2266C65.3876 73.4411 65.5368 72.7517 65.835 72.1584C66.1367 71.5618 66.5576 71.0978 67.0978 70.7663C67.6381 70.4316 68.2728 70.2642 69.002 70.2642C69.4726 70.2642 69.9167 70.3404 70.3343 70.4929C70.7553 70.642 71.1265 70.8741 71.448 71.1889C71.7728 71.5038 72.028 71.9048 72.2136 72.392C72.3992 72.8759 72.492 73.4527 72.492 74.1222V74.674H66.2328V73.4609H70.7669C70.7636 73.1162 70.689 72.8097 70.5431 72.5412C70.3973 72.2694 70.1935 72.0556 69.9316 71.8999C69.6731 71.7441 69.3715 71.6662 69.0268 71.6662C68.6589 71.6662 68.3358 71.7557 68.0574 71.9347C67.7789 72.1103 67.5618 72.3423 67.4061 72.6307C67.2536 72.9157 67.1757 73.2289 67.1724 73.5703V74.6293C67.1724 75.0734 67.2536 75.4545 67.416 75.7727C67.5784 76.0876 67.8055 76.3295 68.0971 76.4986C68.3888 76.6643 68.7302 76.7472 69.1213 76.7472C69.3831 76.7472 69.6201 76.7107 69.8322 76.6378C70.0443 76.5616 70.2283 76.4505 70.3841 76.3047C70.5398 76.1589 70.6575 75.9782 70.737 75.7628L72.4174 75.9517C72.3114 76.3958 72.1092 76.7836 71.8109 77.1151C71.5159 77.4432 71.1381 77.6984 70.6774 77.8807C70.2167 78.0597 69.6897 78.1491 69.0964 78.1491ZM81.6087 67.8182V78H79.7642V69.6129H79.7045L77.3232 71.1342V69.4439L79.8537 67.8182H81.6087Z" fill="black"/>
<path d="M32.1804 88.8636L29.3679 99.3125H28.2301L31.0426 88.8636H32.1804ZM33.2628 100.455V91.4545H34.5071V92.5156H34.6136C34.6875 92.3793 34.794 92.2216 34.9332 92.0426C35.0724 91.8636 35.2656 91.7074 35.5128 91.5739C35.7599 91.4375 36.0866 91.3693 36.4929 91.3693C37.0213 91.3693 37.4929 91.5028 37.9077 91.7699C38.3224 92.0369 38.6477 92.4219 38.8835 92.9247C39.1222 93.4276 39.2415 94.0327 39.2415 94.7401C39.2415 95.4474 39.1236 96.054 38.8878 96.5597C38.652 97.0625 38.3281 97.4503 37.9162 97.723C37.5043 97.9929 37.0341 98.1278 36.5057 98.1278C36.108 98.1278 35.7827 98.0611 35.5298 97.9276C35.2798 97.794 35.0838 97.6378 34.9418 97.4588C34.7997 97.2798 34.6903 97.1207 34.6136 96.9815H34.5369V100.455H33.2628ZM34.5114 94.7273C34.5114 95.1875 34.5781 95.5909 34.7116 95.9375C34.8452 96.2841 35.0384 96.5554 35.2912 96.7514C35.544 96.9446 35.8537 97.0412 36.2202 97.0412C36.6009 97.0412 36.919 96.9403 37.1747 96.7386C37.4304 96.5341 37.6236 96.2571 37.7543 95.9077C37.8878 95.5582 37.9545 95.1648 37.9545 94.7273C37.9545 94.2955 37.8892 93.9077 37.7585 93.5639C37.6307 93.2202 37.4375 92.9489 37.179 92.75C36.9233 92.5511 36.6037 92.4517 36.2202 92.4517C35.8509 92.4517 35.5384 92.5469 35.2827 92.7372C35.0298 92.9276 34.8381 93.1932 34.7074 93.5341C34.5767 93.875 34.5114 94.2727 34.5114 94.7273ZM42.5739 98.1449C42.1591 98.1449 41.7841 98.0682 41.4489 97.9148C41.1136 97.7585 40.848 97.5327 40.652 97.2372C40.4588 96.9418 40.3622 96.5795 40.3622 96.1506C40.3622 95.7812 40.4332 95.4773 40.5753 95.2386C40.7173 95 40.9091 94.8111 41.1506 94.6719C41.392 94.5327 41.6619 94.4276 41.9602 94.3565C42.2585 94.2855 42.5625 94.2315 42.8722 94.1946C43.2642 94.1491 43.5824 94.1122 43.8267 94.0838C44.071 94.0526 44.2486 94.0028 44.3594 93.9347C44.4702 93.8665 44.5256 93.7557 44.5256 93.6023V93.5724C44.5256 93.2003 44.4205 92.9119 44.2102 92.7074C44.0028 92.5028 43.6932 92.4006 43.2812 92.4006C42.8523 92.4006 42.5142 92.4957 42.267 92.6861C42.0227 92.8736 41.8537 93.0824 41.7599 93.3125L40.5625 93.0398C40.7045 92.642 40.9119 92.321 41.1847 92.0767C41.4602 91.8295 41.777 91.6506 42.1349 91.5398C42.4929 91.4261 42.8693 91.3693 43.2642 91.3693C43.5256 91.3693 43.8026 91.4006 44.0952 91.4631C44.3906 91.5227 44.6662 91.6335 44.9219 91.7955C45.1804 91.9574 45.392 92.1889 45.5568 92.4901C45.7216 92.7884 45.804 93.1761 45.804 93.6534V98H44.5597V97.1051H44.5085C44.4261 97.2699 44.3026 97.4318 44.1378 97.5909C43.973 97.75 43.7614 97.8821 43.5028 97.9872C43.2443 98.0923 42.9347 98.1449 42.5739 98.1449ZM42.8509 97.1222C43.2031 97.1222 43.5043 97.0526 43.7543 96.9134C44.0071 96.7741 44.1989 96.5923 44.3295 96.3679C44.4631 96.1406 44.5298 95.8977 44.5298 95.6392V94.7955C44.4844 94.8409 44.3963 94.8835 44.2656 94.9233C44.1378 94.9602 43.9915 94.9929 43.8267 95.0213C43.6619 95.0469 43.5014 95.071 43.3452 95.0938C43.1889 95.1136 43.0582 95.1307 42.9531 95.1449C42.706 95.1761 42.4801 95.2287 42.2756 95.3026C42.0739 95.3764 41.9119 95.483 41.7898 95.6222C41.6705 95.7585 41.6108 95.9403 41.6108 96.1676C41.6108 96.483 41.7273 96.7216 41.9602 96.8835C42.1932 97.0426 42.4901 97.1222 42.8509 97.1222ZM50.5565 91.4545V92.4773H46.9812V91.4545H50.5565ZM47.94 89.8864H49.2141V96.0781C49.2141 96.3253 49.2511 96.5114 49.3249 96.6364C49.3988 96.7585 49.494 96.8423 49.6104 96.8878C49.7298 96.9304 49.859 96.9517 49.9982 96.9517C50.1005 96.9517 50.19 96.9446 50.2667 96.9304C50.3434 96.9162 50.4031 96.9048 50.4457 96.8963L50.6758 97.9489C50.6019 97.9773 50.4968 98.0057 50.3604 98.0341C50.2241 98.0653 50.0536 98.0824 49.8491 98.0852C49.5138 98.0909 49.2013 98.0312 48.9116 97.9062C48.6218 97.7812 48.3874 97.5881 48.2085 97.3267C48.0295 97.0653 47.94 96.7372 47.94 96.3423V89.8864ZM53.3807 94.1136V98H52.1065V89.2727H53.3636V92.5199H53.4446C53.598 92.1676 53.8324 91.8878 54.1477 91.6804C54.4631 91.473 54.875 91.3693 55.3835 91.3693C55.8324 91.3693 56.2244 91.4616 56.5597 91.6463C56.8977 91.831 57.1591 92.1065 57.3438 92.473C57.5312 92.8366 57.625 93.2912 57.625 93.8366V98H56.3509V93.9901C56.3509 93.5099 56.2273 93.1378 55.9801 92.8736C55.733 92.6065 55.3892 92.473 54.9489 92.473C54.6477 92.473 54.3778 92.5369 54.1392 92.6648C53.9034 92.7926 53.7173 92.9801 53.581 93.2273C53.4474 93.4716 53.3807 93.767 53.3807 94.1136ZM62.6491 88.8636L59.8366 99.3125H58.6989L61.5114 88.8636H62.6491ZM65.6364 98.1449C65.2216 98.1449 64.8466 98.0682 64.5114 97.9148C64.1761 97.7585 63.9105 97.5327 63.7145 97.2372C63.5213 96.9418 63.4247 96.5795 63.4247 96.1506C63.4247 95.7812 63.4957 95.4773 63.6378 95.2386C63.7798 95 63.9716 94.8111 64.2131 94.6719C64.4545 94.5327 64.7244 94.4276 65.0227 94.3565C65.321 94.2855 65.625 94.2315 65.9347 94.1946C66.3267 94.1491 66.6449 94.1122 66.8892 94.0838C67.1335 94.0526 67.3111 94.0028 67.4219 93.9347C67.5327 93.8665 67.5881 93.7557 67.5881 93.6023V93.5724C67.5881 93.2003 67.483 92.9119 67.2727 92.7074C67.0653 92.5028 66.7557 92.4006 66.3438 92.4006C65.9148 92.4006 65.5767 92.4957 65.3295 92.6861C65.0852 92.8736 64.9162 93.0824 64.8224 93.3125L63.625 93.0398C63.767 92.642 63.9744 92.321 64.2472 92.0767C64.5227 91.8295 64.8395 91.6506 65.1974 91.5398C65.5554 91.4261 65.9318 91.3693 66.3267 91.3693C66.5881 91.3693 66.8651 91.4006 67.1577 91.4631C67.4531 91.5227 67.7287 91.6335 67.9844 91.7955C68.2429 91.9574 68.4545 92.1889 68.6193 92.4901C68.7841 92.7884 68.8665 93.1761 68.8665 93.6534V98H67.6222V97.1051H67.571C67.4886 97.2699 67.3651 97.4318 67.2003 97.5909C67.0355 97.75 66.8239 97.8821 66.5653 97.9872C66.3068 98.0923 65.9972 98.1449 65.6364 98.1449ZM65.9134 97.1222C66.2656 97.1222 66.5668 97.0526 66.8168 96.9134C67.0696 96.7741 67.2614 96.5923 67.392 96.3679C67.5256 96.1406 67.5923 95.8977 67.5923 95.6392V94.7955C67.5469 94.8409 67.4588 94.8835 67.3281 94.9233C67.2003 94.9602 67.054 94.9929 66.8892 95.0213C66.7244 95.0469 66.5639 95.071 66.4077 95.0938C66.2514 95.1136 66.1207 95.1307 66.0156 95.1449C65.7685 95.1761 65.5426 95.2287 65.3381 95.3026C65.1364 95.3764 64.9744 95.483 64.8523 95.6222C64.733 95.7585 64.6733 95.9403 64.6733 96.1676C64.6733 96.483 64.7898 96.7216 65.0227 96.8835C65.2557 97.0426 65.5526 97.1222 65.9134 97.1222ZM70.5636 98V91.4545H71.7951V92.4943H71.8633C71.9826 92.142 72.1928 91.8651 72.494 91.6634C72.7979 91.4588 73.1417 91.3565 73.5252 91.3565C73.6048 91.3565 73.6985 91.3594 73.8065 91.3651C73.9173 91.3707 74.0039 91.3778 74.0664 91.3864V92.6051C74.0153 92.5909 73.9244 92.5753 73.7937 92.5582C73.663 92.5384 73.5323 92.5284 73.4016 92.5284C73.1005 92.5284 72.832 92.5923 72.5962 92.7202C72.3633 92.8452 72.1786 93.0199 72.0423 93.2443C71.9059 93.4659 71.8377 93.7187 71.8377 94.0028V98H70.5636ZM78.6112 91.4545V92.4773H75.0359V91.4545H78.6112ZM75.9947 89.8864H77.2688V96.0781C77.2688 96.3253 77.3058 96.5114 77.3796 96.6364C77.4535 96.7585 77.5487 96.8423 77.6651 96.8878C77.7844 96.9304 77.9137 96.9517 78.0529 96.9517C78.1552 96.9517 78.2447 96.9446 78.3214 96.9304C78.3981 96.9162 78.4577 96.9048 78.5004 96.8963L78.7305 97.9489C78.6566 97.9773 78.5515 98.0057 78.4151 98.0341C78.2788 98.0653 78.1083 98.0824 77.9038 98.0852C77.5685 98.0909 77.256 98.0312 76.9663 97.9062C76.6765 97.7812 76.4421 97.5881 76.2631 97.3267C76.0842 97.0653 75.9947 96.7372 75.9947 96.3423V89.8864ZM80.0206 98V91.4545H81.2947V98H80.0206ZM80.6641 90.4446C80.4425 90.4446 80.2521 90.3707 80.093 90.223C79.9368 90.0724 79.8587 89.8935 79.8587 89.6861C79.8587 89.4759 79.9368 89.2969 80.093 89.1491C80.2521 88.9986 80.4425 88.9233 80.6641 88.9233C80.8857 88.9233 81.0746 88.9986 81.2308 89.1491C81.3899 89.2969 81.4695 89.4759 81.4695 89.6861C81.4695 89.8935 81.3899 90.0724 81.2308 90.223C81.0746 90.3707 80.8857 90.4446 80.6641 90.4446ZM85.766 98.1321C85.1325 98.1321 84.587 97.9886 84.1296 97.7017C83.6751 97.4119 83.3256 97.0128 83.0813 96.5043C82.837 95.9957 82.7148 95.4134 82.7148 94.7571C82.7148 94.0923 82.8398 93.5057 83.0898 92.9972C83.3398 92.4858 83.6921 92.0866 84.1467 91.7997C84.6012 91.5128 85.1367 91.3693 85.7532 91.3693C86.2504 91.3693 86.6935 91.4616 87.0827 91.6463C87.4719 91.8281 87.7859 92.0838 88.0245 92.4134C88.266 92.7429 88.4094 93.1278 88.4549 93.5682H87.2148C87.1467 93.2614 86.9904 92.9972 86.7461 92.7756C86.5046 92.554 86.1808 92.4432 85.7745 92.4432C85.4194 92.4432 85.1083 92.5369 84.8413 92.7244C84.5771 92.9091 84.3711 93.1733 84.2234 93.517C84.0756 93.858 84.0018 94.2614 84.0018 94.7273C84.0018 95.2045 84.0742 95.6165 84.2191 95.9631C84.364 96.3097 84.5685 96.5781 84.8327 96.7685C85.0998 96.9588 85.4137 97.054 85.7745 97.054C86.016 97.054 86.2347 97.0099 86.4308 96.9219C86.6296 96.831 86.7958 96.7017 86.9293 96.5341C87.0657 96.3665 87.1609 96.1648 87.2148 95.929H88.4549C88.4094 96.3523 88.2717 96.7301 88.0415 97.0625C87.8114 97.3949 87.5032 97.6562 87.1168 97.8466C86.7333 98.0369 86.283 98.1321 85.766 98.1321ZM91.0916 89.2727V98H89.8175V89.2727H91.0916ZM95.6268 98.1321C94.9819 98.1321 94.4265 97.9943 93.9606 97.7188C93.4975 97.4403 93.1396 97.0497 92.8867 96.5469C92.6367 96.0412 92.5117 95.4489 92.5117 94.7699C92.5117 94.0994 92.6367 93.5085 92.8867 92.9972C93.1396 92.4858 93.4918 92.0866 93.9435 91.7997C94.3981 91.5128 94.9293 91.3693 95.5373 91.3693C95.9066 91.3693 96.2646 91.4304 96.6112 91.5526C96.9577 91.6747 97.2688 91.8665 97.5444 92.1278C97.82 92.3892 98.0373 92.7287 98.1964 93.1463C98.3555 93.5611 98.435 94.0653 98.435 94.6591V95.1108H93.2319V94.1562H97.1864C97.1864 93.821 97.1183 93.5241 96.9819 93.2656C96.8455 93.0043 96.6538 92.7983 96.4066 92.6477C96.1623 92.4972 95.8754 92.4219 95.5458 92.4219C95.1879 92.4219 94.8754 92.5099 94.6083 92.6861C94.3441 92.8594 94.1396 93.0866 93.9947 93.3679C93.8526 93.6463 93.7816 93.9489 93.7816 94.2756V95.0213C93.7816 95.4588 93.8583 95.831 94.0117 96.1378C94.168 96.4446 94.3853 96.679 94.6637 96.8409C94.9421 97 95.2674 97.0795 95.6396 97.0795C95.881 97.0795 96.1012 97.0455 96.3001 96.9773C96.4989 96.9062 96.6708 96.8011 96.8157 96.6619C96.9606 96.5227 97.0714 96.3509 97.1481 96.1463L98.354 96.3636C98.2575 96.7187 98.0842 97.0298 97.8342 97.2969C97.587 97.5611 97.2759 97.767 96.9009 97.9148C96.5288 98.0597 96.104 98.1321 95.6268 98.1321ZM103.705 93.7599V94.8636H99.8359V93.7599H103.705ZM108.697 89.2727V98H107.376V90.5938H107.325L105.237 91.9574V90.696L107.415 89.2727H108.697Z" fill="black" fill-opacity="0.5"/>
</g>
<g clip-path="url(#clip2_6_119)">
<path d="M30.3118 126H28.343L31.9276 115.818H34.2045L37.794 126H35.8253L33.1058 117.906H33.0263L30.3118 126ZM30.3764 122.008H35.7457V123.489H30.3764V122.008ZM39.0556 126V118.364H40.8006V119.636H40.8801C41.0194 119.196 41.258 118.856 41.5961 118.617C41.9374 118.375 42.3269 118.254 42.7644 118.254C42.8638 118.254 42.9748 118.259 43.0975 118.269C43.2234 118.276 43.3278 118.287 43.4107 118.304V119.96C43.3345 119.933 43.2135 119.91 43.0478 119.89C42.8854 119.867 42.7279 119.855 42.5755 119.855C42.2473 119.855 41.9524 119.926 41.6905 120.069C41.432 120.208 41.2282 120.402 41.079 120.651C40.9299 120.899 40.8553 121.186 40.8553 121.511V126H39.0556ZM48.8297 118.364V119.756H44.4398V118.364H48.8297ZM45.5236 116.534H47.3233V123.703C47.3233 123.945 47.3598 124.131 47.4327 124.26C47.5089 124.386 47.6084 124.472 47.731 124.518C47.8536 124.565 47.9895 124.588 48.1387 124.588C48.2514 124.588 48.3541 124.58 48.4469 124.563C48.543 124.547 48.6159 124.532 48.6657 124.518L48.9689 125.925C48.8728 125.959 48.7353 125.995 48.5563 126.035C48.3806 126.075 48.1652 126.098 47.91 126.104C47.4592 126.118 47.0532 126.05 46.6919 125.901C46.3307 125.748 46.044 125.513 45.8319 125.195C45.623 124.876 45.5203 124.479 45.5236 124.001V116.534ZM50.3349 126V118.364H52.1346V126H50.3349ZM51.2397 117.28C50.9547 117.28 50.7094 117.185 50.5039 116.996C50.2984 116.804 50.1957 116.574 50.1957 116.305C50.1957 116.034 50.2984 115.803 50.5039 115.614C50.7094 115.422 50.9547 115.326 51.2397 115.326C51.5281 115.326 51.7733 115.422 51.9755 115.614C52.181 115.803 52.2837 116.034 52.2837 116.305C52.2837 116.574 52.181 116.804 51.9755 116.996C51.7733 117.185 51.5281 117.28 51.2397 117.28ZM57.3162 126.149C56.5539 126.149 55.8993 125.982 55.3525 125.647C54.8089 125.312 54.3896 124.85 54.0946 124.26C53.803 123.667 53.6571 122.984 53.6571 122.212C53.6571 121.436 53.8063 120.752 54.1046 120.158C54.4029 119.562 54.8238 119.098 55.3674 118.766C55.9142 118.432 56.5605 118.264 57.3063 118.264C57.9261 118.264 58.4746 118.379 58.9519 118.607C59.4325 118.833 59.8153 119.152 60.1003 119.567C60.3854 119.978 60.5478 120.458 60.5875 121.009H58.8674C58.7978 120.641 58.632 120.334 58.3702 120.089C58.1117 119.84 57.7653 119.716 57.3311 119.716C56.9632 119.716 56.6401 119.815 56.3617 120.014C56.0833 120.21 55.8662 120.491 55.7104 120.859C55.5579 121.227 55.4817 121.668 55.4817 122.182C55.4817 122.702 55.5579 123.15 55.7104 123.524C55.8629 123.895 56.0766 124.182 56.3517 124.384C56.6301 124.583 56.9566 124.683 57.3311 124.683C57.5963 124.683 57.8333 124.633 58.0421 124.533C58.2542 124.431 58.4315 124.283 58.574 124.091C58.7166 123.899 58.8143 123.665 58.8674 123.39H60.5875C60.5444 123.93 60.3854 124.409 60.1103 124.827C59.8352 125.241 59.4606 125.566 58.9867 125.801C58.5127 126.033 57.9559 126.149 57.3162 126.149ZM63.8651 115.818V126H62.0653V115.818H63.8651ZM69.0964 126.149C68.3308 126.149 67.6696 125.99 67.1127 125.672C66.5592 125.35 66.1333 124.896 65.835 124.31C65.5368 123.72 65.3876 123.025 65.3876 122.227C65.3876 121.441 65.5368 120.752 65.835 120.158C66.1367 119.562 66.5576 119.098 67.0978 118.766C67.6381 118.432 68.2728 118.264 69.002 118.264C69.4726 118.264 69.9167 118.34 70.3343 118.493C70.7553 118.642 71.1265 118.874 71.448 119.189C71.7728 119.504 72.028 119.905 72.2136 120.392C72.3992 120.876 72.492 121.453 72.492 122.122V122.674H66.2328V121.461H70.7669C70.7636 121.116 70.689 120.81 70.5431 120.541C70.3973 120.269 70.1935 120.056 69.9316 119.9C69.6731 119.744 69.3715 119.666 69.0268 119.666C68.6589 119.666 68.3358 119.756 68.0574 119.935C67.7789 120.11 67.5618 120.342 67.4061 120.631C67.2536 120.916 67.1757 121.229 67.1724 121.57V122.629C67.1724 123.073 67.2536 123.455 67.416 123.773C67.5784 124.088 67.8055 124.33 68.0971 124.499C68.3888 124.664 68.7302 124.747 69.1213 124.747C69.3831 124.747 69.6201 124.711 69.8322 124.638C70.0443 124.562 70.2283 124.451 70.3841 124.305C70.5398 124.159 70.6575 123.978 70.737 123.763L72.4174 123.952C72.3114 124.396 72.1092 124.784 71.8109 125.115C71.5159 125.443 71.1381 125.698 70.6774 125.881C70.2167 126.06 69.6897 126.149 69.0964 126.149ZM77.4673 126V124.668L81.0021 121.202C81.3402 120.861 81.6219 120.558 81.8473 120.293C82.0727 120.027 82.2417 119.771 82.3544 119.522C82.4671 119.273 82.5234 119.008 82.5234 118.727C82.5234 118.405 82.4505 118.13 82.3047 117.901C82.1589 117.669 81.9583 117.49 81.7031 117.364C81.4479 117.238 81.1579 117.175 80.8331 117.175C80.4983 117.175 80.205 117.245 79.9531 117.384C79.7012 117.52 79.5057 117.714 79.3665 117.966C79.2306 118.218 79.1626 118.518 79.1626 118.866H77.4077C77.4077 118.219 77.5552 117.658 77.8501 117.18C78.1451 116.703 78.5511 116.334 79.0682 116.072C79.5885 115.81 80.1851 115.679 80.858 115.679C81.5407 115.679 82.1406 115.807 82.6577 116.062C83.1747 116.317 83.5758 116.667 83.8608 117.111C84.1491 117.555 84.2933 118.062 84.2933 118.632C84.2933 119.013 84.2204 119.388 84.0746 119.756C83.9287 120.124 83.6719 120.531 83.304 120.979C82.9394 121.426 82.4273 121.968 81.7678 122.604L80.0128 124.389V124.459H84.4474V126H77.4673Z" fill="black"/>
<path d="M32.1804 136.864L29.3679 147.312H28.2301L31.0426 136.864H32.1804ZM33.2628 148.455V139.455H34.5071V140.516H34.6136C34.6875 140.379 34.794 140.222 34.9332 140.043C35.0724 139.864 35.2656 139.707 35.5128 139.574C35.7599 139.438 36.0866 139.369 36.4929 139.369C37.0213 139.369 37.4929 139.503 37.9077 139.77C38.3224 140.037 38.6477 140.422 38.8835 140.925C39.1222 141.428 39.2415 142.033 39.2415 142.74C39.2415 143.447 39.1236 144.054 38.8878 144.56C38.652 145.062 38.3281 145.45 37.9162 145.723C37.5043 145.993 37.0341 146.128 36.5057 146.128C36.108 146.128 35.7827 146.061 35.5298 145.928C35.2798 145.794 35.0838 145.638 34.9418 145.459C34.7997 145.28 34.6903 145.121 34.6136 144.982H34.5369V148.455H33.2628ZM34.5114 142.727C34.5114 143.187 34.5781 143.591 34.7116 143.938C34.8452 144.284 35.0384 144.555 35.2912 144.751C35.544 144.945 35.8537 145.041 36.2202 145.041C36.6009 145.041 36.919 144.94 37.1747 144.739C37.4304 144.534 37.6236 144.257 37.7543 143.908C37.8878 143.558 37.9545 143.165 37.9545 142.727C37.9545 142.295 37.8892 141.908 37.7585 141.564C37.6307 141.22 37.4375 140.949 37.179 140.75C36.9233 140.551 36.6037 140.452 36.2202 140.452C35.8509 140.452 35.5384 140.547 35.2827 140.737C35.0298 140.928 34.8381 141.193 34.7074 141.534C34.5767 141.875 34.5114 142.273 34.5114 142.727ZM42.5739 146.145C42.1591 146.145 41.7841 146.068 41.4489 145.915C41.1136 145.759 40.848 145.533 40.652 145.237C40.4588 144.942 40.3622 144.58 40.3622 144.151C40.3622 143.781 40.4332 143.477 40.5753 143.239C40.7173 143 40.9091 142.811 41.1506 142.672C41.392 142.533 41.6619 142.428 41.9602 142.357C42.2585 142.286 42.5625 142.232 42.8722 142.195C43.2642 142.149 43.5824 142.112 43.8267 142.084C44.071 142.053 44.2486 142.003 44.3594 141.935C44.4702 141.866 44.5256 141.756 44.5256 141.602V141.572C44.5256 141.2 44.4205 140.912 44.2102 140.707C44.0028 140.503 43.6932 140.401 43.2812 140.401C42.8523 140.401 42.5142 140.496 42.267 140.686C42.0227 140.874 41.8537 141.082 41.7599 141.312L40.5625 141.04C40.7045 140.642 40.9119 140.321 41.1847 140.077C41.4602 139.83 41.777 139.651 42.1349 139.54C42.4929 139.426 42.8693 139.369 43.2642 139.369C43.5256 139.369 43.8026 139.401 44.0952 139.463C44.3906 139.523 44.6662 139.634 44.9219 139.795C45.1804 139.957 45.392 140.189 45.5568 140.49C45.7216 140.788 45.804 141.176 45.804 141.653V146H44.5597V145.105H44.5085C44.4261 145.27 44.3026 145.432 44.1378 145.591C43.973 145.75 43.7614 145.882 43.5028 145.987C43.2443 146.092 42.9347 146.145 42.5739 146.145ZM42.8509 145.122C43.2031 145.122 43.5043 145.053 43.7543 144.913C44.0071 144.774 44.1989 144.592 44.3295 144.368C44.4631 144.141 44.5298 143.898 44.5298 143.639V142.795C44.4844 142.841 44.3963 142.884 44.2656 142.923C44.1378 142.96 43.9915 142.993 43.8267 143.021C43.6619 143.047 43.5014 143.071 43.3452 143.094C43.1889 143.114 43.0582 143.131 42.9531 143.145C42.706 143.176 42.4801 143.229 42.2756 143.303C42.0739 143.376 41.9119 143.483 41.7898 143.622C41.6705 143.759 41.6108 143.94 41.6108 144.168C41.6108 144.483 41.7273 144.722 41.9602 144.884C42.1932 145.043 42.4901 145.122 42.8509 145.122ZM50.5565 139.455V140.477H46.9812V139.455H50.5565ZM47.94 137.886H49.2141V144.078C49.2141 144.325 49.2511 144.511 49.3249 144.636C49.3988 144.759 49.494 144.842 49.6104 144.888C49.7298 144.93 49.859 144.952 49.9982 144.952C50.1005 144.952 50.19 144.945 50.2667 144.93C50.3434 144.916 50.4031 144.905 50.4457 144.896L50.6758 145.949C50.6019 145.977 50.4968 146.006 50.3604 146.034C50.2241 146.065 50.0536 146.082 49.8491 146.085C49.5138 146.091 49.2013 146.031 48.9116 145.906C48.6218 145.781 48.3874 145.588 48.2085 145.327C48.0295 145.065 47.94 144.737 47.94 144.342V137.886ZM53.3807 142.114V146H52.1065V137.273H53.3636V140.52H53.4446C53.598 140.168 53.8324 139.888 54.1477 139.68C54.4631 139.473 54.875 139.369 55.3835 139.369C55.8324 139.369 56.2244 139.462 56.5597 139.646C56.8977 139.831 57.1591 140.107 57.3438 140.473C57.5312 140.837 57.625 141.291 57.625 141.837V146H56.3509V141.99C56.3509 141.51 56.2273 141.138 55.9801 140.874C55.733 140.607 55.3892 140.473 54.9489 140.473C54.6477 140.473 54.3778 140.537 54.1392 140.665C53.9034 140.793 53.7173 140.98 53.581 141.227C53.4474 141.472 53.3807 141.767 53.3807 142.114ZM62.6491 136.864L59.8366 147.312H58.6989L61.5114 136.864H62.6491ZM65.6364 146.145C65.2216 146.145 64.8466 146.068 64.5114 145.915C64.1761 145.759 63.9105 145.533 63.7145 145.237C63.5213 144.942 63.4247 144.58 63.4247 144.151C63.4247 143.781 63.4957 143.477 63.6378 143.239C63.7798 143 63.9716 142.811 64.2131 142.672C64.4545 142.533 64.7244 142.428 65.0227 142.357C65.321 142.286 65.625 142.232 65.9347 142.195C66.3267 142.149 66.6449 142.112 66.8892 142.084C67.1335 142.053 67.3111 142.003 67.4219 141.935C67.5327 141.866 67.5881 141.756 67.5881 141.602V141.572C67.5881 141.2 67.483 140.912 67.2727 140.707C67.0653 140.503 66.7557 140.401 66.3438 140.401C65.9148 140.401 65.5767 140.496 65.3295 140.686C65.0852 140.874 64.9162 141.082 64.8224 141.312L63.625 141.04C63.767 140.642 63.9744 140.321 64.2472 140.077C64.5227 139.83 64.8395 139.651 65.1974 139.54C65.5554 139.426 65.9318 139.369 66.3267 139.369C66.5881 139.369 66.8651 139.401 67.1577 139.463C67.4531 139.523 67.7287 139.634 67.9844 139.795C68.2429 139.957 68.4545 140.189 68.6193 140.49C68.7841 140.788 68.8665 141.176 68.8665 141.653V146H67.6222V145.105H67.571C67.4886 145.27 67.3651 145.432 67.2003 145.591C67.0355 145.75 66.8239 145.882 66.5653 145.987C66.3068 146.092 65.9972 146.145 65.6364 146.145ZM65.9134 145.122C66.2656 145.122 66.5668 145.053 66.8168 144.913C67.0696 144.774 67.2614 144.592 67.392 144.368C67.5256 144.141 67.5923 143.898 67.5923 143.639V142.795C67.5469 142.841 67.4588 142.884 67.3281 142.923C67.2003 142.96 67.054 142.993 66.8892 143.021C66.7244 143.047 66.5639 143.071 66.4077 143.094C66.2514 143.114 66.1207 143.131 66.0156 143.145C65.7685 143.176 65.5426 143.229 65.3381 143.303C65.1364 143.376 64.9744 143.483 64.8523 143.622C64.733 143.759 64.6733 143.94 64.6733 144.168C64.6733 144.483 64.7898 144.722 65.0227 144.884C65.2557 145.043 65.5526 145.122 65.9134 145.122ZM70.5636 146V139.455H71.7951V140.494H71.8633C71.9826 140.142 72.1928 139.865 72.494 139.663C72.7979 139.459 73.1417 139.357 73.5252 139.357C73.6048 139.357 73.6985 139.359 73.8065 139.365C73.9173 139.371 74.0039 139.378 74.0664 139.386V140.605C74.0153 140.591 73.9244 140.575 73.7937 140.558C73.663 140.538 73.5323 140.528 73.4016 140.528C73.1005 140.528 72.832 140.592 72.5962 140.72C72.3633 140.845 72.1786 141.02 72.0423 141.244C71.9059 141.466 71.8377 141.719 71.8377 142.003V146H70.5636ZM78.6112 139.455V140.477H75.0359V139.455H78.6112ZM75.9947 137.886H77.2688V144.078C77.2688 144.325 77.3058 144.511 77.3796 144.636C77.4535 144.759 77.5487 144.842 77.6651 144.888C77.7844 144.93 77.9137 144.952 78.0529 144.952C78.1552 144.952 78.2447 144.945 78.3214 144.93C78.3981 144.916 78.4577 144.905 78.5004 144.896L78.7305 145.949C78.6566 145.977 78.5515 146.006 78.4151 146.034C78.2788 146.065 78.1083 146.082 77.9038 146.085C77.5685 146.091 77.256 146.031 76.9663 145.906C76.6765 145.781 76.4421 145.588 76.2631 145.327C76.0842 145.065 75.9947 144.737 75.9947 144.342V137.886ZM80.0206 146V139.455H81.2947V146H80.0206ZM80.6641 138.445C80.4425 138.445 80.2521 138.371 80.093 138.223C79.9368 138.072 79.8587 137.893 79.8587 137.686C79.8587 137.476 79.9368 137.297 80.093 137.149C80.2521 136.999 80.4425 136.923 80.6641 136.923C80.8857 136.923 81.0746 136.999 81.2308 137.149C81.3899 137.297 81.4695 137.476 81.4695 137.686C81.4695 137.893 81.3899 138.072 81.2308 138.223C81.0746 138.371 80.8857 138.445 80.6641 138.445ZM85.766 146.132C85.1325 146.132 84.587 145.989 84.1296 145.702C83.6751 145.412 83.3256 145.013 83.0813 144.504C82.837 143.996 82.7148 143.413 82.7148 142.757C82.7148 142.092 82.8398 141.506 83.0898 140.997C83.3398 140.486 83.6921 140.087 84.1467 139.8C84.6012 139.513 85.1367 139.369 85.7532 139.369C86.2504 139.369 86.6935 139.462 87.0827 139.646C87.4719 139.828 87.7859 140.084 88.0245 140.413C88.266 140.743 88.4094 141.128 88.4549 141.568H87.2148C87.1467 141.261 86.9904 140.997 86.7461 140.776C86.5046 140.554 86.1808 140.443 85.7745 140.443C85.4194 140.443 85.1083 140.537 84.8413 140.724C84.5771 140.909 84.3711 141.173 84.2234 141.517C84.0756 141.858 84.0018 142.261 84.0018 142.727C84.0018 143.205 84.0742 143.616 84.2191 143.963C84.364 144.31 84.5685 144.578 84.8327 144.768C85.0998 144.959 85.4137 145.054 85.7745 145.054C86.016 145.054 86.2347 145.01 86.4308 144.922C86.6296 144.831 86.7958 144.702 86.9293 144.534C87.0657 144.366 87.1609 144.165 87.2148 143.929H88.4549C88.4094 144.352 88.2717 144.73 88.0415 145.062C87.8114 145.395 87.5032 145.656 87.1168 145.847C86.7333 146.037 86.283 146.132 85.766 146.132ZM91.0916 137.273V146H89.8175V137.273H91.0916ZM95.6268 146.132C94.9819 146.132 94.4265 145.994 93.9606 145.719C93.4975 145.44 93.1396 145.05 92.8867 144.547C92.6367 144.041 92.5117 143.449 92.5117 142.77C92.5117 142.099 92.6367 141.509 92.8867 140.997C93.1396 140.486 93.4918 140.087 93.9435 139.8C94.3981 139.513 94.9293 139.369 95.5373 139.369C95.9066 139.369 96.2646 139.43 96.6112 139.553C96.9577 139.675 97.2688 139.866 97.5444 140.128C97.82 140.389 98.0373 140.729 98.1964 141.146C98.3555 141.561 98.435 142.065 98.435 142.659V143.111H93.2319V142.156H97.1864C97.1864 141.821 97.1183 141.524 96.9819 141.266C96.8455 141.004 96.6538 140.798 96.4066 140.648C96.1623 140.497 95.8754 140.422 95.5458 140.422C95.1879 140.422 94.8754 140.51 94.6083 140.686C94.3441 140.859 94.1396 141.087 93.9947 141.368C93.8526 141.646 93.7816 141.949 93.7816 142.276V143.021C93.7816 143.459 93.8583 143.831 94.0117 144.138C94.168 144.445 94.3853 144.679 94.6637 144.841C94.9421 145 95.2674 145.08 95.6396 145.08C95.881 145.08 96.1012 145.045 96.3001 144.977C96.4989 144.906 96.6708 144.801 96.8157 144.662C96.9606 144.523 97.0714 144.351 97.1481 144.146L98.354 144.364C98.2575 144.719 98.0842 145.03 97.8342 145.297C97.587 145.561 97.2759 145.767 96.9009 145.915C96.5288 146.06 96.104 146.132 95.6268 146.132ZM103.705 141.76V142.864H99.8359V141.76H103.705ZM105.035 146V145.045L107.988 141.986C108.303 141.653 108.563 141.362 108.768 141.112C108.975 140.859 109.13 140.619 109.232 140.392C109.335 140.165 109.386 139.923 109.386 139.668C109.386 139.378 109.317 139.128 109.181 138.918C109.045 138.705 108.859 138.541 108.623 138.428C108.387 138.311 108.121 138.253 107.826 138.253C107.513 138.253 107.241 138.317 107.008 138.445C106.775 138.572 106.596 138.753 106.471 138.986C106.346 139.219 106.283 139.491 106.283 139.804H105.026C105.026 139.273 105.148 138.808 105.393 138.411C105.637 138.013 105.972 137.705 106.398 137.486C106.825 137.264 107.309 137.153 107.852 137.153C108.4 137.153 108.883 137.263 109.3 137.482C109.721 137.697 110.049 137.993 110.285 138.368C110.521 138.74 110.638 139.161 110.638 139.629C110.638 139.953 110.577 140.27 110.455 140.58C110.336 140.889 110.127 141.234 109.829 141.615C109.531 141.993 109.116 142.452 108.585 142.991L106.85 144.807V144.871H110.779V146H105.035Z" fill="black" fill-opacity="0.5"/>
</g>
<g clip-path="url(#clip3_6_119)">
<path d="M31.3118 180H29.343L32.9276 169.818H35.2045L38.794 180H36.8253L34.1058 171.906H34.0263L31.3118 180ZM31.3764 176.008H36.7457V177.489H31.3764V176.008ZM40.0556 180V172.364H41.8006V173.636H41.8801C42.0194 173.196 42.258 172.856 42.5961 172.617C42.9374 172.375 43.3269 172.254 43.7644 172.254C43.8638 172.254 43.9748 172.259 44.0975 172.269C44.2234 172.276 44.3278 172.287 44.4107 172.304V173.96C44.3345 173.933 44.2135 173.91 44.0478 173.89C43.8854 173.867 43.7279 173.855 43.5755 173.855C43.2473 173.855 42.9524 173.926 42.6905 174.069C42.432 174.208 42.2282 174.402 42.079 174.651C41.9299 174.899 41.8553 175.186 41.8553 175.511V180H40.0556ZM49.8297 172.364V173.756H45.4398V172.364H49.8297ZM46.5236 170.534H48.3233V177.703C48.3233 177.945 48.3598 178.131 48.4327 178.26C48.5089 178.386 48.6084 178.472 48.731 178.518C48.8536 178.565 48.9895 178.588 49.1387 178.588C49.2514 178.588 49.3541 178.58 49.4469 178.563C49.543 178.547 49.6159 178.532 49.6657 178.518L49.9689 179.925C49.8728 179.959 49.7353 179.995 49.5563 180.035C49.3806 180.075 49.1652 180.098 48.91 180.104C48.4592 180.118 48.0532 180.05 47.6919 179.901C47.3307 179.748 47.044 179.513 46.8319 179.195C46.623 178.876 46.5203 178.479 46.5236 178.001V170.534ZM51.3349 180V172.364H53.1346V180H51.3349ZM52.2397 171.28C51.9547 171.28 51.7094 171.185 51.5039 170.996C51.2984 170.804 51.1957 170.574 51.1957 170.305C51.1957 170.034 51.2984 169.803 51.5039 169.614C51.7094 169.422 51.9547 169.326 52.2397 169.326C52.5281 169.326 52.7733 169.422 52.9755 169.614C53.181 169.803 53.2837 170.034 53.2837 170.305C53.2837 170.574 53.181 170.804 52.9755 170.996C52.7733 171.185 52.5281 171.28 52.2397 171.28ZM58.3162 180.149C57.5539 180.149 56.8993 179.982 56.3525 179.647C55.8089 179.312 55.3896 178.85 55.0946 178.26C54.803 177.667 54.6571 176.984 54.6571 176.212C54.6571 175.436 54.8063 174.752 55.1046 174.158C55.4029 173.562 55.8238 173.098 56.3674 172.766C56.9142 172.432 57.5605 172.264 58.3063 172.264C58.9261 172.264 59.4746 172.379 59.9519 172.607C60.4325 172.833 60.8153 173.152 61.1003 173.567C61.3854 173.978 61.5478 174.458 61.5875 175.009H59.8674C59.7978 174.641 59.632 174.334 59.3702 174.089C59.1117 173.84 58.7653 173.716 58.3311 173.716C57.9632 173.716 57.6401 173.815 57.3617 174.014C57.0833 174.21 56.8662 174.491 56.7104 174.859C56.5579 175.227 56.4817 175.668 56.4817 176.182C56.4817 176.702 56.5579 177.15 56.7104 177.524C56.8629 177.895 57.0766 178.182 57.3517 178.384C57.6301 178.583 57.9566 178.683 58.3311 178.683C58.5963 178.683 58.8333 178.633 59.0421 178.533C59.2542 178.431 59.4315 178.283 59.574 178.091C59.7166 177.899 59.8143 177.665 59.8674 177.39H61.5875C61.5444 177.93 61.3854 178.409 61.1103 178.827C60.8352 179.241 60.4606 179.566 59.9867 179.801C59.5127 180.033 58.9559 180.149 58.3162 180.149ZM64.8651 169.818V180H63.0653V169.818H64.8651ZM70.0964 180.149C69.3308 180.149 68.6696 179.99 68.1127 179.672C67.5592 179.35 67.1333 178.896 66.835 178.31C66.5368 177.72 66.3876 177.025 66.3876 176.227C66.3876 175.441 66.5368 174.752 66.835 174.158C67.1367 173.562 67.5576 173.098 68.0978 172.766C68.6381 172.432 69.2728 172.264 70.002 172.264C70.4726 172.264 70.9167 172.34 71.3343 172.493C71.7553 172.642 72.1265 172.874 72.448 173.189C72.7728 173.504 73.028 173.905 73.2136 174.392C73.3992 174.876 73.492 175.453 73.492 176.122V176.674H67.2328V175.461H71.7669C71.7636 175.116 71.689 174.81 71.5431 174.541C71.3973 174.269 71.1935 174.056 70.9316 173.9C70.6731 173.744 70.3715 173.666 70.0268 173.666C69.6589 173.666 69.3358 173.756 69.0574 173.935C68.7789 174.11 68.5618 174.342 68.4061 174.631C68.2536 174.916 68.1757 175.229 68.1724 175.57V176.629C68.1724 177.073 68.2536 177.455 68.416 177.773C68.5784 178.088 68.8055 178.33 69.0971 178.499C69.3888 178.664 69.7302 178.747 70.1213 178.747C70.3831 178.747 70.6201 178.711 70.8322 178.638C71.0443 178.562 71.2283 178.451 71.3841 178.305C71.5398 178.159 71.6575 177.978 71.737 177.763L73.4174 177.952C73.3114 178.396 73.1092 178.784 72.8109 179.115C72.5159 179.443 72.1381 179.698 71.6774 179.881C71.2167 180.06 70.6897 180.149 70.0964 180.149ZM82.1214 180.139C81.4055 180.139 80.7692 180.017 80.2124 179.771C79.6589 179.526 79.2214 179.185 78.8999 178.747C78.5784 178.31 78.4077 177.804 78.3878 177.231H80.2571C80.2737 177.506 80.3648 177.746 80.5305 177.952C80.6963 178.154 80.9167 178.311 81.1918 178.424C81.4669 178.537 81.7751 178.593 82.1165 178.593C82.4811 178.593 82.8042 178.53 83.0859 178.404C83.3677 178.275 83.5881 178.096 83.7472 177.867C83.9063 177.638 83.9841 177.375 83.9808 177.077C83.9841 176.768 83.9046 176.497 83.7422 176.261C83.5798 176.026 83.3445 175.842 83.0362 175.71C82.7313 175.577 82.3634 175.511 81.9325 175.511H81.0327V174.089H81.9325C82.2872 174.089 82.5971 174.027 82.8622 173.905C83.1307 173.782 83.3411 173.61 83.4936 173.388C83.6461 173.162 83.7206 172.902 83.7173 172.607C83.7206 172.319 83.656 172.069 83.5234 171.857C83.3942 171.641 83.2102 171.474 82.9716 171.354C82.7363 171.235 82.4595 171.175 82.1413 171.175C81.8298 171.175 81.5414 171.232 81.2763 171.344C81.0111 171.457 80.7973 171.618 80.6349 171.827C80.4725 172.032 80.3864 172.277 80.3764 172.562H78.6016C78.6148 171.992 78.7789 171.492 79.0938 171.061C79.4119 170.627 79.8362 170.289 80.3665 170.047C80.8968 169.802 81.4917 169.679 82.1513 169.679C82.8307 169.679 83.4207 169.807 83.9212 170.062C84.425 170.314 84.8144 170.653 85.0895 171.081C85.3646 171.509 85.5021 171.981 85.5021 172.498C85.5054 173.071 85.3364 173.552 84.995 173.94C84.657 174.327 84.2128 174.581 83.6626 174.7V174.78C84.3786 174.879 84.9271 175.144 85.3082 175.575C85.6927 176.003 85.8833 176.535 85.88 177.171C85.88 177.741 85.7176 178.252 85.3928 178.702C85.0713 179.15 84.6271 179.501 84.0604 179.756C83.4969 180.012 82.8506 180.139 82.1214 180.139Z" fill="black"/>
<path d="M32.8864 200.119C32.4972 200.114 32.1136 200.043 31.7358 199.906C31.3608 199.77 31.0199 199.543 30.7131 199.224C30.4063 198.906 30.1605 198.479 29.9759 197.942C29.794 197.405 29.7031 196.734 29.7031 195.93C29.7031 195.169 29.7784 194.493 29.929 193.902C30.0824 193.311 30.3026 192.812 30.5895 192.406C30.8764 191.997 31.223 191.686 31.6293 191.473C32.0355 191.26 32.4915 191.153 32.9972 191.153C33.517 191.153 33.9787 191.256 34.3821 191.46C34.7855 191.665 35.1122 191.947 35.3622 192.308C35.6151 192.669 35.7756 193.08 35.8438 193.54H34.544C34.456 193.176 34.2813 192.879 34.0199 192.649C33.7585 192.419 33.4176 192.304 32.9972 192.304C32.358 192.304 31.8594 192.582 31.5014 193.139C31.1463 193.696 30.9673 194.47 30.9645 195.462H31.0284C31.179 195.214 31.3636 195.004 31.5824 194.831C31.804 194.655 32.0511 194.52 32.3239 194.426C32.5994 194.33 32.8892 194.281 33.1932 194.281C33.6989 194.281 34.1563 194.405 34.5653 194.652C34.9773 194.896 35.3054 195.234 35.5497 195.666C35.794 196.098 35.9162 196.592 35.9162 197.149C35.9162 197.706 35.7898 198.21 35.5369 198.662C35.2869 199.114 34.9347 199.472 34.4801 199.736C34.0256 199.997 33.4943 200.125 32.8864 200.119ZM32.8821 199.011C33.2173 199.011 33.517 198.929 33.7812 198.764C34.0455 198.599 34.2543 198.378 34.4077 198.099C34.5611 197.821 34.6378 197.51 34.6378 197.166C34.6378 196.831 34.5625 196.526 34.4119 196.25C34.2642 195.974 34.0597 195.756 33.7983 195.594C33.5398 195.432 33.2443 195.351 32.9119 195.351C32.6591 195.351 32.4247 195.399 32.2088 195.496C31.9957 195.592 31.8082 195.726 31.6463 195.896C31.4844 196.067 31.3565 196.263 31.2628 196.484C31.1719 196.703 31.1264 196.935 31.1264 197.179C31.1264 197.506 31.2017 197.808 31.3523 198.087C31.5057 198.365 31.7145 198.589 31.9787 198.76C32.2457 198.928 32.5469 199.011 32.8821 199.011ZM40.5067 200.119C39.9215 200.119 39.3988 200.018 38.9386 199.817C38.4812 199.615 38.119 199.335 37.8519 198.977C37.5877 198.616 37.4457 198.199 37.4258 197.724H38.7638C38.7809 197.983 38.8675 198.207 39.0238 198.398C39.1829 198.585 39.3903 198.73 39.646 198.832C39.9016 198.935 40.1857 198.986 40.4982 198.986C40.842 198.986 41.146 198.926 41.4102 198.807C41.6772 198.687 41.886 198.521 42.0366 198.308C42.1871 198.092 42.2624 197.844 42.2624 197.562C42.2624 197.27 42.1871 197.013 42.0366 196.791C41.8888 196.567 41.6715 196.391 41.3846 196.263C41.1005 196.135 40.7567 196.071 40.3533 196.071H39.6161V194.997H40.3533C40.6772 194.997 40.9613 194.939 41.2056 194.822C41.4528 194.706 41.646 194.544 41.7852 194.337C41.9244 194.126 41.994 193.881 41.994 193.599C41.994 193.33 41.9329 193.095 41.8107 192.896C41.6914 192.695 41.521 192.537 41.2994 192.423C41.0806 192.31 40.8221 192.253 40.5238 192.253C40.2397 192.253 39.9741 192.305 39.7269 192.411C39.4826 192.513 39.2837 192.661 39.1303 192.854C38.9769 193.044 38.8945 193.273 38.8832 193.54H37.609C37.6232 193.068 37.7624 192.653 38.0266 192.295C38.2937 191.937 38.646 191.658 39.0835 191.456C39.521 191.254 40.0067 191.153 40.5408 191.153C41.1005 191.153 41.5835 191.263 41.9897 191.482C42.3988 191.697 42.7141 191.986 42.9357 192.347C43.1602 192.707 43.271 193.102 43.2681 193.531C43.271 194.02 43.1346 194.435 42.859 194.776C42.5863 195.116 42.2227 195.345 41.7681 195.462V195.53C42.3477 195.618 42.7965 195.848 43.1147 196.22C43.4357 196.592 43.5948 197.054 43.592 197.605C43.5948 198.085 43.4613 198.516 43.1914 198.896C42.9244 199.277 42.5593 199.577 42.0962 199.795C41.6332 200.011 41.1033 200.119 40.5067 200.119ZM45.4968 200L49.3065 192.466V192.402H44.9002V191.273H50.6701V192.44L46.8732 200H45.4968ZM56.1843 200H54.7866L57.9272 191.273H59.4485L62.5891 200H61.1914L58.7241 192.858H58.6559L56.1843 200ZM56.4187 196.582H60.9528V197.69H56.4187V196.582ZM63.7472 200V193.455H64.9787V194.494H65.0469C65.1662 194.142 65.3764 193.865 65.6776 193.663C65.9815 193.459 66.3253 193.357 66.7088 193.357C66.7884 193.357 66.8821 193.359 66.9901 193.365C67.1009 193.371 67.1875 193.378 67.25 193.386V194.605C67.1989 194.591 67.108 194.575 66.9773 194.558C66.8466 194.538 66.7159 194.528 66.5852 194.528C66.2841 194.528 66.0156 194.592 65.7798 194.72C65.5469 194.845 65.3622 195.02 65.2259 195.244C65.0895 195.466 65.0213 195.719 65.0213 196.003V200H63.7472ZM71.7947 193.455V194.477H68.2195V193.455H71.7947ZM69.1783 191.886H70.4524V198.078C70.4524 198.325 70.4893 198.511 70.5632 198.636C70.6371 198.759 70.7322 198.842 70.8487 198.888C70.968 198.93 71.0973 198.952 71.2365 198.952C71.3388 198.952 71.4283 198.945 71.505 198.93C71.5817 198.916 71.6413 198.905 71.6839 198.896L71.9141 199.949C71.8402 199.977 71.7351 200.006 71.5987 200.034C71.4624 200.065 71.2919 200.082 71.0874 200.085C70.7521 200.091 70.4396 200.031 70.1499 199.906C69.8601 199.781 69.6257 199.588 69.4467 199.327C69.2678 199.065 69.1783 198.737 69.1783 198.342V191.886ZM73.2042 200V193.455H74.4783V200H73.2042ZM73.8477 192.445C73.6261 192.445 73.4357 192.371 73.2766 192.223C73.1204 192.072 73.0423 191.893 73.0423 191.686C73.0423 191.476 73.1204 191.297 73.2766 191.149C73.4357 190.999 73.6261 190.923 73.8477 190.923C74.0692 190.923 74.2582 190.999 74.4144 191.149C74.5735 191.297 74.6531 191.476 74.6531 191.686C74.6531 191.893 74.5735 192.072 74.4144 192.223C74.2582 192.371 74.0692 192.445 73.8477 192.445ZM78.9496 200.132C78.3161 200.132 77.7706 199.989 77.3132 199.702C76.8587 199.412 76.5092 199.013 76.2649 198.504C76.0206 197.996 75.8984 197.413 75.8984 196.757C75.8984 196.092 76.0234 195.506 76.2734 194.997C76.5234 194.486 76.8757 194.087 77.3303 193.8C77.7848 193.513 78.3203 193.369 78.9368 193.369C79.4339 193.369 79.8771 193.462 80.2663 193.646C80.6555 193.828 80.9695 194.084 81.2081 194.413C81.4496 194.743 81.593 195.128 81.6385 195.568H80.3984C80.3303 195.261 80.174 194.997 79.9297 194.776C79.6882 194.554 79.3643 194.443 78.9581 194.443C78.603 194.443 78.2919 194.537 78.0249 194.724C77.7607 194.909 77.5547 195.173 77.407 195.517C77.2592 195.858 77.1854 196.261 77.1854 196.727C77.1854 197.205 77.2578 197.616 77.4027 197.963C77.5476 198.31 77.7521 198.578 78.0163 198.768C78.2834 198.959 78.5973 199.054 78.9581 199.054C79.1996 199.054 79.4183 199.01 79.6143 198.922C79.8132 198.831 79.9794 198.702 80.1129 198.534C80.2493 198.366 80.3445 198.165 80.3984 197.929H81.6385C81.593 198.352 81.4553 198.73 81.2251 199.062C80.995 199.395 80.6868 199.656 80.3004 199.847C79.9169 200.037 79.4666 200.132 78.9496 200.132ZM84.2752 191.273V200H83.0011V191.273H84.2752ZM88.8104 200.132C88.1655 200.132 87.6101 199.994 87.1442 199.719C86.6811 199.44 86.3232 199.05 86.0703 198.547C85.8203 198.041 85.6953 197.449 85.6953 196.77C85.6953 196.099 85.8203 195.509 86.0703 194.997C86.3232 194.486 86.6754 194.087 87.1271 193.8C87.5817 193.513 88.1129 193.369 88.7209 193.369C89.0902 193.369 89.4482 193.43 89.7947 193.553C90.1413 193.675 90.4524 193.866 90.728 194.128C91.0036 194.389 91.2209 194.729 91.38 195.146C91.5391 195.561 91.6186 196.065 91.6186 196.659V197.111H86.4155V196.156H90.37C90.37 195.821 90.3018 195.524 90.1655 195.266C90.0291 195.004 89.8374 194.798 89.5902 194.648C89.3459 194.497 89.0589 194.422 88.7294 194.422C88.3714 194.422 88.0589 194.51 87.7919 194.686C87.5277 194.859 87.3232 195.087 87.1783 195.368C87.0362 195.646 86.9652 195.949 86.9652 196.276V197.021C86.9652 197.459 87.0419 197.831 87.1953 198.138C87.3516 198.445 87.5689 198.679 87.8473 198.841C88.1257 199 88.451 199.08 88.8232 199.08C89.0646 199.08 89.2848 199.045 89.4837 198.977C89.6825 198.906 89.8544 198.801 89.9993 198.662C90.1442 198.523 90.255 198.351 90.3317 198.146L91.5376 198.364C91.4411 198.719 91.2678 199.03 91.0178 199.297C90.7706 199.561 90.4595 199.767 90.0845 199.915C89.7124 200.06 89.2876 200.132 88.8104 200.132ZM97.9371 195.053L96.7823 195.257C96.734 195.109 96.6573 194.969 96.5522 194.835C96.4499 194.702 96.3107 194.592 96.1346 194.507C95.9585 194.422 95.7383 194.379 95.4741 194.379C95.1133 194.379 94.8121 194.46 94.5707 194.622C94.3292 194.781 94.2085 194.987 94.2085 195.24C94.2085 195.459 94.2894 195.635 94.4513 195.768C94.6133 195.902 94.8746 196.011 95.2354 196.097L96.2752 196.335C96.8775 196.474 97.3263 196.689 97.6218 196.979C97.9173 197.268 98.065 197.645 98.065 198.108C98.065 198.5 97.9513 198.849 97.7241 199.156C97.4996 199.46 97.1857 199.699 96.7823 199.872C96.3817 200.045 95.9173 200.132 95.3888 200.132C94.6559 200.132 94.0579 199.976 93.5948 199.663C93.1317 199.348 92.8477 198.901 92.7425 198.321L93.9741 198.134C94.0508 198.455 94.2085 198.697 94.4471 198.862C94.6857 199.024 94.9968 199.105 95.3803 199.105C95.7979 199.105 96.1317 199.018 96.3817 198.845C96.6317 198.669 96.7567 198.455 96.7567 198.202C96.7567 197.997 96.68 197.825 96.5266 197.686C96.3761 197.547 96.1445 197.442 95.832 197.371L94.7241 197.128C94.1133 196.989 93.6616 196.767 93.369 196.463C93.0792 196.159 92.9343 195.774 92.9343 195.308C92.9343 194.922 93.0423 194.584 93.2582 194.294C93.4741 194.004 93.7724 193.778 94.1531 193.616C94.5337 193.452 94.9698 193.369 95.4613 193.369C96.1687 193.369 96.7255 193.523 97.1317 193.83C97.538 194.134 97.8065 194.541 97.9371 195.053Z" fill="black" fill-opacity="0.5"/>
</g>
<path d="M34.052 25.015V27.154H29.797V41H27.175V27.154H22.897V25.015H34.052ZM42.2044 41.207C41.0084 41.207 39.9274 40.9387 38.9614 40.402C37.9954 39.85 37.2364 39.0833 36.6844 38.102C36.1324 37.1053 35.8564 35.9553 35.8564 34.652C35.8564 33.364 36.1401 32.2217 36.7074 31.225C37.2748 30.2283 38.0491 29.4617 39.0304 28.925C40.0118 28.3883 41.1081 28.12 42.3194 28.12C43.5308 28.12 44.6271 28.3883 45.6084 28.925C46.5898 29.4617 47.3641 30.2283 47.9314 31.225C48.4988 32.2217 48.7824 33.364 48.7824 34.652C48.7824 35.94 48.4911 37.0823 47.9084 38.079C47.3258 39.0757 46.5284 39.85 45.5164 40.402C44.5198 40.9387 43.4158 41.207 42.2044 41.207ZM42.2044 38.93C42.8791 38.93 43.5078 38.769 44.0904 38.447C44.6884 38.125 45.1714 37.642 45.5394 36.998C45.9074 36.354 46.0914 35.572 46.0914 34.652C46.0914 33.732 45.9151 32.9577 45.5624 32.329C45.2098 31.685 44.7421 31.202 44.1594 30.88C43.5768 30.558 42.9481 30.397 42.2734 30.397C41.5988 30.397 40.9701 30.558 40.3874 30.88C39.8201 31.202 39.3678 31.685 39.0304 32.329C38.6931 32.9577 38.5244 33.732 38.5244 34.652C38.5244 36.0167 38.8694 37.0747 39.5594 37.826C40.2648 38.562 41.1464 38.93 42.2044 38.93ZM53.9964 30.19C54.4411 29.6073 55.0467 29.1167 55.8134 28.718C56.5801 28.3193 57.4464 28.12 58.4124 28.12C59.5164 28.12 60.5207 28.396 61.4254 28.948C62.3454 29.4847 63.0661 30.2437 63.5874 31.225C64.1087 32.2063 64.3694 33.3333 64.3694 34.606C64.3694 35.8787 64.1087 37.021 63.5874 38.033C63.0661 39.0297 62.3454 39.8117 61.4254 40.379C60.5207 40.931 59.5164 41.207 58.4124 41.207C57.4464 41.207 56.5877 41.0153 55.8364 40.632C55.0851 40.2333 54.4717 39.7427 53.9964 39.16V47.026H51.3744V28.327H53.9964V30.19ZM61.7014 34.606C61.7014 33.732 61.5174 32.9807 61.1494 32.352C60.7967 31.708 60.3214 31.225 59.7234 30.903C59.1407 30.5657 58.5121 30.397 57.8374 30.397C57.1781 30.397 56.5494 30.5657 55.9514 30.903C55.3687 31.2403 54.8934 31.731 54.5254 32.375C54.1727 33.019 53.9964 33.778 53.9964 34.652C53.9964 35.526 54.1727 36.2927 54.5254 36.952C54.8934 37.596 55.3687 38.0867 55.9514 38.424C56.5494 38.7613 57.1781 38.93 57.8374 38.93C58.5121 38.93 59.1407 38.7613 59.7234 38.424C60.3214 38.0713 60.7967 37.5653 61.1494 36.906C61.5174 36.2467 61.7014 35.48 61.7014 34.606ZM84.1149 29.776C84.1149 30.5887 83.9232 31.3553 83.5399 32.076C83.1566 32.7967 82.5432 33.387 81.6999 33.847C80.8566 34.2917 79.7756 34.514 78.4569 34.514H75.5589V41H72.9369V25.015H78.4569C79.6836 25.015 80.7186 25.2297 81.5619 25.659C82.4206 26.073 83.0569 26.6403 83.4709 27.361C83.9002 28.0817 84.1149 28.8867 84.1149 29.776ZM78.4569 32.375C79.4536 32.375 80.1972 32.1527 80.6879 31.708C81.1786 31.248 81.4239 30.604 81.4239 29.776C81.4239 28.028 80.4349 27.154 78.4569 27.154H75.5589V32.375H78.4569ZM85.7416 34.606C85.7416 33.3333 86.0023 32.2063 86.5236 31.225C87.0603 30.2437 87.781 29.4847 88.6856 28.948C89.6056 28.396 90.6176 28.12 91.7216 28.12C92.7183 28.12 93.5846 28.3193 94.3206 28.718C95.072 29.1013 95.67 29.5843 96.1146 30.167V28.327H98.7596V41H96.1146V39.114C95.67 39.712 95.0643 40.2103 94.2976 40.609C93.531 41.0077 92.657 41.207 91.6756 41.207C90.587 41.207 89.5903 40.931 88.6856 40.379C87.781 39.8117 87.0603 39.0297 86.5236 38.033C86.0023 37.021 85.7416 35.8787 85.7416 34.606ZM96.1146 34.652C96.1146 33.778 95.9306 33.019 95.5626 32.375C95.21 31.731 94.7423 31.2403 94.1596 30.903C93.577 30.5657 92.9483 30.397 92.2736 30.397C91.599 30.397 90.9703 30.5657 90.3876 30.903C89.805 31.225 89.3296 31.708 88.9616 32.352C88.609 32.9807 88.4326 33.732 88.4326 34.606C88.4326 35.48 88.609 36.2467 88.9616 36.906C89.3296 37.5653 89.805 38.0713 90.3876 38.424C90.9856 38.7613 91.6143 38.93 92.2736 38.93C92.9483 38.93 93.577 38.7613 94.1596 38.424C94.7423 38.0867 95.21 37.596 95.5626 36.952C95.9306 36.2927 96.1146 35.526 96.1146 34.652ZM107.31 28.12C108.291 28.12 109.157 28.3193 109.909 28.718C110.675 29.1013 111.273 29.5843 111.703 30.167V28.327H114.348V41.207C114.348 42.3723 114.102 43.4073 113.612 44.312C113.121 45.232 112.408 45.9527 111.473 46.474C110.553 46.9953 109.449 47.256 108.161 47.256C106.443 47.256 105.017 46.8497 103.883 46.037C102.748 45.2397 102.104 44.151 101.951 42.771H104.55C104.749 43.4303 105.171 43.9593 105.815 44.358C106.474 44.772 107.256 44.979 108.161 44.979C109.219 44.979 110.07 44.657 110.714 44.013C111.373 43.369 111.703 42.4337 111.703 41.207V39.091C111.258 39.689 110.652 40.195 109.886 40.609C109.134 41.0077 108.276 41.207 107.31 41.207C106.206 41.207 105.194 40.931 104.274 40.379C103.369 39.8117 102.648 39.0297 102.112 38.033C101.59 37.021 101.33 35.8787 101.33 34.606C101.33 33.3333 101.59 32.2063 102.112 31.225C102.648 30.2437 103.369 29.4847 104.274 28.948C105.194 28.396 106.206 28.12 107.31 28.12ZM111.703 34.652C111.703 33.778 111.519 33.019 111.151 32.375C110.798 31.731 110.33 31.2403 109.748 30.903C109.165 30.5657 108.536 30.397 107.862 30.397C107.187 30.397 106.558 30.5657 105.976 30.903C105.393 31.225 104.918 31.708 104.55 32.352C104.197 32.9807 104.021 33.732 104.021 34.606C104.021 35.48 104.197 36.2467 104.55 36.906C104.918 37.5653 105.393 38.0713 105.976 38.424C106.574 38.7613 107.202 38.93 107.862 38.93C108.536 38.93 109.165 38.7613 109.748 38.424C110.33 38.0867 110.798 37.596 111.151 36.952C111.519 36.2927 111.703 35.526 111.703 34.652ZM129.406 34.353C129.406 34.8283 129.376 35.2577 129.314 35.641H119.631C119.708 36.653 120.084 37.4657 120.758 38.079C121.433 38.6923 122.261 38.999 123.242 38.999C124.653 38.999 125.65 38.4087 126.232 37.228H129.061C128.678 38.3933 127.98 39.3517 126.968 40.103C125.972 40.839 124.73 41.207 123.242 41.207C122.031 41.207 120.942 40.9387 119.976 40.402C119.026 39.85 118.274 39.0833 117.722 38.102C117.186 37.1053 116.917 35.9553 116.917 34.652C116.917 33.3487 117.178 32.2063 117.699 31.225C118.236 30.2283 118.98 29.4617 119.93 28.925C120.896 28.3883 122 28.12 123.242 28.12C124.438 28.12 125.504 28.3807 126.439 28.902C127.375 29.4233 128.103 30.1593 128.624 31.11C129.146 32.0453 129.406 33.1263 129.406 34.353ZM126.669 33.525C126.654 32.559 126.309 31.7847 125.634 31.202C124.96 30.6193 124.124 30.328 123.127 30.328C122.223 30.328 121.448 30.6193 120.804 31.202C120.16 31.7693 119.777 32.5437 119.654 33.525H126.669ZM136.587 41.207C135.59 41.207 134.693 41.0307 133.896 40.678C133.114 40.31 132.493 39.8193 132.033 39.206C131.573 38.5773 131.327 37.8797 131.297 37.113H134.011C134.057 37.6497 134.31 38.102 134.77 38.47C135.245 38.8227 135.835 38.999 136.541 38.999C137.277 38.999 137.844 38.861 138.243 38.585C138.657 38.2937 138.864 37.9257 138.864 37.481C138.864 37.0057 138.634 36.653 138.174 36.423C137.729 36.193 137.016 35.94 136.035 35.664C135.084 35.4033 134.31 35.1503 133.712 34.905C133.114 34.6597 132.592 34.284 132.148 33.778C131.718 33.272 131.504 32.605 131.504 31.777C131.504 31.1023 131.703 30.489 132.102 29.937C132.5 29.3697 133.068 28.925 133.804 28.603C134.555 28.281 135.414 28.12 136.38 28.12C137.821 28.12 138.979 28.488 139.853 29.224C140.742 29.9447 141.217 30.9337 141.279 32.191H138.657C138.611 31.6237 138.381 31.1713 137.967 30.834C137.553 30.4967 136.993 30.328 136.288 30.328C135.598 30.328 135.069 30.4583 134.701 30.719C134.333 30.9797 134.149 31.3247 134.149 31.754C134.149 32.0913 134.271 32.375 134.517 32.605C134.762 32.835 135.061 33.019 135.414 33.157C135.766 33.2797 136.288 33.4407 136.978 33.64C137.898 33.8853 138.649 34.1383 139.232 34.399C139.83 34.6443 140.343 35.0123 140.773 35.503C141.202 35.9937 141.424 36.6453 141.44 37.458C141.44 38.1787 141.24 38.8227 140.842 39.39C140.443 39.9573 139.876 40.402 139.14 40.724C138.419 41.046 137.568 41.207 136.587 41.207Z" fill="black" fill-opacity="0.5"/>
<path d="M345.199 71.9813C345.486 71.4677 346.203 71.4677 346.49 71.9813L350.366 78.9146C350.653 79.4282 350.294 80.0702 349.72 80.0702H341.969C341.395 80.0702 341.036 79.4282 341.323 78.9146L345.199 71.9813Z" fill="#1FE08F"/>
<path d="M330.057 72.3636V84H327.949V74.4148H327.881L325.16 76.1534V74.2216L328.052 72.3636H330.057Z" fill="#151E23"/>
<path d="M345.199 130.529C345.486 131.043 346.203 131.043 346.49 130.529L350.366 123.596C350.653 123.082 350.294 122.441 349.72 122.441H341.969C341.395 122.441 341.036 123.082 341.323 123.596L345.199 130.529Z" fill="#FF3E13"/>
<path d="M323.074 134.844V133.322L327.114 129.362C327.501 128.971 327.822 128.625 328.08 128.322C328.338 128.019 328.531 127.725 328.66 127.441C328.788 127.157 328.853 126.854 328.853 126.532C328.853 126.165 328.769 125.85 328.603 125.589C328.436 125.324 328.207 125.119 327.915 124.975C327.624 124.831 327.292 124.759 326.921 124.759C326.538 124.759 326.203 124.839 325.915 124.998C325.627 125.153 325.404 125.375 325.245 125.663C325.09 125.951 325.012 126.293 325.012 126.691H323.006C323.006 125.952 323.175 125.31 323.512 124.765C323.849 124.219 324.313 123.797 324.904 123.498C325.499 123.199 326.18 123.049 326.949 123.049C327.73 123.049 328.415 123.195 329.006 123.487C329.597 123.778 330.055 124.178 330.381 124.685C330.711 125.193 330.876 125.773 330.876 126.424C330.876 126.86 330.792 127.288 330.626 127.708C330.459 128.129 330.165 128.594 329.745 129.106C329.328 129.617 328.743 130.237 327.989 130.964L325.983 133.004V133.083H331.052V134.844H323.074Z" fill="#151E23"/>
<path d="M345.199 173.67C345.486 173.157 346.203 173.157 346.49 173.67L350.366 180.604C350.653 181.117 350.294 181.759 349.72 181.759H341.969C341.395 181.759 341.036 181.117 341.323 180.604L345.199 173.67Z" fill="#1FE08F"/>
<path d="M326.766 185.848C325.948 185.848 325.221 185.708 324.584 185.428C323.952 185.147 323.452 184.757 323.084 184.257C322.717 183.757 322.522 183.179 322.499 182.524H324.635C324.654 182.839 324.759 183.113 324.948 183.348C325.137 183.579 325.389 183.759 325.704 183.888C326.018 184.017 326.37 184.081 326.76 184.081C327.177 184.081 327.546 184.009 327.868 183.865C328.19 183.717 328.442 183.513 328.624 183.251C328.806 182.99 328.895 182.689 328.891 182.348C328.895 181.996 328.804 181.685 328.618 181.416C328.433 181.147 328.164 180.937 327.812 180.786C327.463 180.634 327.043 180.558 326.55 180.558H325.522V178.933H326.55C326.956 178.933 327.31 178.863 327.613 178.723C327.92 178.583 328.16 178.386 328.334 178.132C328.509 177.875 328.594 177.577 328.59 177.24C328.594 176.911 328.52 176.625 328.368 176.382C328.221 176.136 328.01 175.945 327.738 175.808C327.469 175.672 327.152 175.604 326.789 175.604C326.433 175.604 326.103 175.668 325.8 175.797C325.497 175.926 325.253 176.109 325.067 176.348C324.882 176.583 324.783 176.863 324.772 177.189H322.743C322.759 176.537 322.946 175.965 323.306 175.473C323.67 174.977 324.154 174.59 324.76 174.314C325.367 174.034 326.046 173.894 326.8 173.894C327.577 173.894 328.251 174.039 328.823 174.331C329.399 174.619 329.844 175.007 330.158 175.496C330.473 175.984 330.63 176.524 330.63 177.115C330.634 177.77 330.44 178.32 330.05 178.763C329.664 179.206 329.156 179.496 328.527 179.632V179.723C329.346 179.837 329.973 180.14 330.408 180.632C330.848 181.121 331.065 181.729 331.062 182.456C331.062 183.108 330.876 183.691 330.505 184.206C330.137 184.717 329.63 185.119 328.982 185.411C328.338 185.702 327.599 185.848 326.766 185.848Z" fill="#151E23"/>
<path d="M0 188H381V220C381 231.046 372.046 240 361 240H20C8.95431 240 0 231.046 0 220V188Z" fill="white"/>
<rect y="188" width="381" height="1" fill="black" fill-opacity="0.1"/>
<path d="M126.366 206.989L129.016 215.003H129.121L131.766 206.989H133.794L130.205 217.17H127.928L124.343 206.989H126.366ZM135.056 217.17V209.534H136.855V217.17H135.056ZM135.96 208.45C135.675 208.45 135.43 208.356 135.225 208.167C135.019 207.975 134.916 207.744 134.916 207.476C134.916 207.204 135.019 206.974 135.225 206.785C135.43 206.593 135.675 206.496 135.96 206.496C136.249 206.496 136.494 206.593 136.696 206.785C136.902 206.974 137.004 207.204 137.004 207.476C137.004 207.744 136.902 207.975 136.696 208.167C136.494 208.356 136.249 208.45 135.96 208.45ZM142.087 217.32C141.321 217.32 140.66 217.16 140.103 216.842C139.549 216.521 139.124 216.067 138.825 215.48C138.527 214.89 138.378 214.196 138.378 213.397C138.378 212.611 138.527 211.922 138.825 211.329C139.127 210.732 139.548 210.268 140.088 209.937C140.628 209.602 141.263 209.435 141.992 209.435C142.463 209.435 142.907 209.511 143.325 209.663C143.746 209.812 144.117 210.044 144.438 210.359C144.763 210.674 145.018 211.075 145.204 211.562C145.389 212.046 145.482 212.623 145.482 213.293V213.844H139.223V212.631H143.757C143.754 212.287 143.679 211.98 143.533 211.712C143.388 211.44 143.184 211.226 142.922 211.07C142.663 210.914 142.362 210.837 142.017 210.837C141.649 210.837 141.326 210.926 141.048 211.105C140.769 211.281 140.552 211.513 140.396 211.801C140.244 212.086 140.166 212.399 140.163 212.741V213.8C140.163 214.244 140.244 214.625 140.406 214.943C140.569 215.258 140.796 215.5 141.087 215.669C141.379 215.835 141.72 215.918 142.112 215.918C142.373 215.918 142.61 215.881 142.822 215.808C143.035 215.732 143.219 215.621 143.374 215.475C143.53 215.329 143.648 215.149 143.727 214.933L145.408 215.122C145.302 215.566 145.099 215.954 144.801 216.285C144.506 216.614 144.128 216.869 143.668 217.051C143.207 217.23 142.68 217.32 142.087 217.32ZM148.54 217.17L146.382 209.534H148.217L149.559 214.903H149.629L151.001 209.534H152.815L154.188 214.874H154.262L155.585 209.534H157.424L155.261 217.17H153.387L151.955 212.01H151.851L150.419 217.17H148.54ZM166.021 209.534V210.926H161.507V209.534H166.021ZM162.635 217.17V208.813C162.635 208.299 162.742 207.872 162.954 207.53C163.169 207.189 163.457 206.934 163.819 206.765C164.18 206.596 164.581 206.511 165.022 206.511C165.333 206.511 165.61 206.536 165.852 206.586C166.094 206.636 166.273 206.68 166.389 206.72L166.031 208.112C165.955 208.089 165.859 208.066 165.743 208.043C165.627 208.016 165.497 208.003 165.355 208.003C165.02 208.003 164.783 208.084 164.644 208.246C164.508 208.405 164.44 208.634 164.44 208.932V217.17H162.635ZM172.298 213.959V209.534H174.097V217.17H172.352V215.813H172.273C172.101 216.241 171.817 216.59 171.423 216.862C171.032 217.134 170.549 217.27 169.976 217.27C169.476 217.27 169.033 217.159 168.649 216.937C168.267 216.711 167.969 216.385 167.754 215.957C167.538 215.526 167.431 215.006 167.431 214.396V209.534H169.23V214.118C169.23 214.602 169.363 214.986 169.628 215.271C169.893 215.556 170.241 215.699 170.672 215.699C170.937 215.699 171.194 215.634 171.443 215.505C171.691 215.376 171.895 215.183 172.054 214.928C172.217 214.67 172.298 214.347 172.298 213.959ZM177.748 206.989V217.17H175.948V206.989H177.748ZM181.398 206.989V217.17H179.599V206.989H181.398ZM192.757 211.553L191.116 211.731C191.07 211.566 190.989 211.41 190.873 211.264C190.76 211.118 190.608 211.001 190.415 210.911C190.223 210.822 189.988 210.777 189.71 210.777C189.335 210.777 189.02 210.858 188.765 211.021C188.513 211.183 188.389 211.393 188.392 211.652C188.389 211.874 188.47 212.055 188.636 212.194C188.805 212.333 189.083 212.447 189.471 212.537L190.773 212.815C191.496 212.971 192.033 213.218 192.384 213.556C192.739 213.894 192.918 214.337 192.921 214.883C192.918 215.364 192.777 215.788 192.499 216.156C192.223 216.521 191.841 216.806 191.35 217.011C190.86 217.217 190.296 217.32 189.66 217.32C188.725 217.32 187.973 217.124 187.403 216.733C186.833 216.338 186.493 215.79 186.384 215.087L188.138 214.918C188.218 215.263 188.387 215.523 188.646 215.699C188.904 215.874 189.241 215.962 189.655 215.962C190.082 215.962 190.425 215.874 190.684 215.699C190.946 215.523 191.077 215.306 191.077 215.048C191.077 214.829 190.992 214.648 190.823 214.506C190.657 214.363 190.399 214.254 190.048 214.178L188.745 213.904C188.013 213.752 187.471 213.495 187.119 213.133C186.768 212.769 186.594 212.308 186.597 211.751C186.594 211.281 186.722 210.873 186.98 210.528C187.242 210.18 187.605 209.912 188.069 209.723C188.536 209.531 189.075 209.435 189.685 209.435C190.58 209.435 191.284 209.625 191.798 210.006C192.315 210.388 192.634 210.903 192.757 211.553ZM198.218 209.534V210.926H193.828V209.534H198.218ZM194.912 207.705H196.712V214.874C196.712 215.115 196.748 215.301 196.821 215.43C196.898 215.556 196.997 215.642 197.12 215.689C197.242 215.735 197.378 215.758 197.527 215.758C197.64 215.758 197.743 215.75 197.836 215.734C197.932 215.717 198.005 215.702 198.054 215.689L198.358 217.096C198.261 217.129 198.124 217.165 197.945 217.205C197.769 217.245 197.554 217.268 197.299 217.275C196.848 217.288 196.442 217.22 196.081 217.071C195.719 216.919 195.433 216.683 195.221 216.365C195.012 216.047 194.909 215.649 194.912 215.172V207.705ZM202.972 217.32C202.227 217.32 201.58 217.155 201.034 216.827C200.487 216.499 200.062 216.04 199.761 215.45C199.463 214.86 199.313 214.171 199.313 213.382C199.313 212.593 199.463 211.902 199.761 211.309C200.062 210.716 200.487 210.255 201.034 209.927C201.58 209.599 202.227 209.435 202.972 209.435C203.718 209.435 204.365 209.599 204.911 209.927C205.458 210.255 205.881 210.716 206.179 211.309C206.481 211.902 206.632 212.593 206.632 213.382C206.632 214.171 206.481 214.86 206.179 215.45C205.881 216.04 205.458 216.499 204.911 216.827C204.365 217.155 203.718 217.32 202.972 217.32ZM202.982 215.878C203.387 215.878 203.725 215.767 203.997 215.545C204.268 215.319 204.471 215.018 204.603 214.64C204.739 214.262 204.807 213.841 204.807 213.377C204.807 212.91 204.739 212.487 204.603 212.109C204.471 211.728 204.268 211.425 203.997 211.2C203.725 210.974 203.387 210.861 202.982 210.861C202.568 210.861 202.223 210.974 201.948 211.2C201.677 211.425 201.473 211.728 201.337 212.109C201.204 212.487 201.138 212.91 201.138 213.377C201.138 213.841 201.204 214.262 201.337 214.64C201.473 215.018 201.677 215.319 201.948 215.545C202.223 215.767 202.568 215.878 202.982 215.878ZM208.159 217.17V209.534H209.904V210.807H209.984C210.123 210.366 210.362 210.026 210.7 209.788C211.041 209.546 211.43 209.425 211.868 209.425C211.967 209.425 212.078 209.43 212.201 209.44C212.327 209.446 212.431 209.458 212.514 209.474V211.13C212.438 211.103 212.317 211.08 212.151 211.06C211.989 211.037 211.831 211.026 211.679 211.026C211.351 211.026 211.056 211.097 210.794 211.239C210.536 211.379 210.332 211.572 210.183 211.821C210.033 212.07 209.959 212.356 209.959 212.681V217.17H208.159ZM213.71 217.17V209.534H215.51V217.17H213.71ZM214.615 208.45C214.33 208.45 214.084 208.356 213.879 208.167C213.673 207.975 213.571 207.744 213.571 207.476C213.571 207.204 213.673 206.974 213.879 206.785C214.084 206.593 214.33 206.496 214.615 206.496C214.903 206.496 215.148 206.593 215.35 206.785C215.556 206.974 215.659 207.204 215.659 207.476C215.659 207.744 215.556 207.975 215.35 208.167C215.148 208.356 214.903 208.45 214.615 208.45ZM220.741 217.32C219.975 217.32 219.314 217.16 218.757 216.842C218.204 216.521 217.778 216.067 217.48 215.48C217.181 214.89 217.032 214.196 217.032 213.397C217.032 212.611 217.181 211.922 217.48 211.329C217.781 210.732 218.202 210.268 218.742 209.937C219.283 209.602 219.917 209.435 220.646 209.435C221.117 209.435 221.561 209.511 221.979 209.663C222.4 209.812 222.771 210.044 223.093 210.359C223.417 210.674 223.673 211.075 223.858 211.562C224.044 212.046 224.137 212.623 224.137 213.293V213.844H217.877V212.631H222.411C222.408 212.287 222.334 211.98 222.188 211.712C222.042 211.44 221.838 211.226 221.576 211.07C221.318 210.914 221.016 210.837 220.671 210.837C220.303 210.837 219.98 210.926 219.702 211.105C219.423 211.281 219.206 211.513 219.051 211.801C218.898 212.086 218.82 212.399 218.817 212.741V213.8C218.817 214.244 218.898 214.625 219.061 214.943C219.223 215.258 219.45 215.5 219.742 215.669C220.033 215.835 220.375 215.918 220.766 215.918C221.028 215.918 221.265 215.881 221.477 215.808C221.689 215.732 221.873 215.621 222.029 215.475C222.184 215.329 222.302 215.149 222.382 214.933L224.062 215.122C223.956 215.566 223.754 215.954 223.455 216.285C223.16 216.614 222.783 216.869 222.322 217.051C221.861 217.23 221.334 217.32 220.741 217.32ZM231.695 211.553L230.054 211.731C230.008 211.566 229.926 211.41 229.81 211.264C229.698 211.118 229.545 211.001 229.353 210.911C229.161 210.822 228.925 210.777 228.647 210.777C228.272 210.777 227.958 210.858 227.702 211.021C227.451 211.183 227.326 211.393 227.33 211.652C227.326 211.874 227.407 212.055 227.573 212.194C227.742 212.333 228.021 212.447 228.408 212.537L229.711 212.815C230.433 212.971 230.97 213.218 231.322 213.556C231.676 213.894 231.855 214.337 231.859 214.883C231.855 215.364 231.714 215.788 231.436 216.156C231.161 216.521 230.778 216.806 230.288 217.011C229.797 217.217 229.234 217.32 228.597 217.32C227.663 217.32 226.91 217.124 226.34 216.733C225.77 216.338 225.43 215.79 225.321 215.087L227.076 214.918C227.156 215.263 227.325 215.523 227.583 215.699C227.842 215.874 228.178 215.962 228.592 215.962C229.02 215.962 229.363 215.874 229.621 215.699C229.883 215.523 230.014 215.306 230.014 215.048C230.014 214.829 229.93 214.648 229.761 214.506C229.595 214.363 229.336 214.254 228.985 214.178L227.683 213.904C226.95 213.752 226.408 213.495 226.057 213.133C225.705 212.769 225.531 212.308 225.535 211.751C225.531 211.281 225.659 210.873 225.918 210.528C226.179 210.18 226.542 209.912 227.006 209.723C227.474 209.531 228.012 209.435 228.622 209.435C229.517 209.435 230.221 209.625 230.735 210.006C231.252 210.388 231.572 210.903 231.695 211.553Z" fill="#1B59F8"/>
<path fill-rule="evenodd" clip-rule="evenodd" d="M247.714 207.782L253.684 211.421C254.096 211.672 254.096 212.079 253.684 212.329L247.714 215.969C247.303 216.22 246.636 216.22 246.224 215.969C245.813 215.718 245.813 215.312 246.224 215.061L251.45 211.875L246.224 208.69C245.813 208.439 245.813 208.032 246.224 207.782C246.636 207.531 247.303 207.531 247.714 207.782" fill="#1B59F8"/>
</g>
</g>
<defs>
<filter id="filter0_d_6_119" x="-70" y="-15.5" width="471.5" height="281" filterUnits="userSpaceOnUse" color-interpolation-filters="sRGB">
<feFlood flood-opacity="0" result="BackgroundImageFix"/>
<feColorMatrix in="SourceAlpha" type="matrix" values="0 0 0 0 0 0 0 0 0 0 0 0 0 0 0 0 0 0 127 0" result="hardAlpha"/>
<feOffset dy="5"/>
<feGaussianBlur stdDeviation="10"/>
<feComposite in2="hardAlpha" operator="out"/>
<feColorMatrix type="matrix" values="0 0 0 0 0 0 0 0 0 0 0 0 0 0 0 0 0 0 0.05 0"/>
<feBlend mode="normal" in2="BackgroundImageFix" result="effect1_dropShadow_6_119"/>
<feBlend mode="normal" in="SourceGraphic" in2="effect1_dropShadow_6_119" result="shape"/>
</filter>
<clipPath id="clip0_6_119">
<rect width="381" height="240" fill="white"/>
</clipPath>
<clipPath id="clip1_6_119">
<rect width="183" height="51" fill="white" transform="translate(-50 49)"/>
</clipPath>
<clipPath id="clip2_6_119">
<rect width="246.519" height="50.8444" fill="white" transform="translate(-50 97)"/>
</clipPath>
<clipPath id="clip3_6_119">
<rect width="246.519" height="50.8444" fill="white" transform="translate(-49 151)"/>
</clipPath>
</defs>
</svg>
