<svg width="390" height="249" viewBox="0 0 390 249" fill="none" xmlns="http://www.w3.org/2000/svg">
<g filter="url(#filter0_dd_6_122)">
<g filter="url(#filter1_d_6_122)">
<rect x="4.35294" y="2.90198" width="381" height="240" rx="16" fill="white"/>
</g>
<path d="M51.0658 216.313H52.0881V222.347C52.0881 222.886 51.9891 223.344 51.7913 223.72C51.5934 224.097 51.3145 224.382 50.9545 224.577C50.5945 224.773 50.1699 224.87 49.6808 224.87C49.2191 224.87 48.8083 224.786 48.4483 224.619C48.0883 224.448 47.8052 224.206 47.5991 223.893C47.393 223.58 47.2899 223.208 47.2899 222.776H48.2957C48.2957 223.015 48.3548 223.224 48.473 223.403C48.5939 223.579 48.7588 223.716 48.9676 223.815C49.1765 223.914 49.4142 223.963 49.6808 223.963C49.9748 223.963 50.2249 223.901 50.431 223.778C50.6371 223.654 50.7937 223.473 50.9009 223.234C51.0108 222.992 51.0658 222.696 51.0658 222.347V216.313ZM55.868 224.903C55.4668 224.903 55.1027 224.828 54.7757 224.676C54.4487 224.522 54.189 224.301 53.9966 224.013C53.8042 223.721 53.7081 223.37 53.7081 222.957C53.7081 222.595 53.7795 222.301 53.9224 222.075C54.0653 221.847 54.2563 221.669 54.4954 221.539C54.7345 221.41 54.9983 221.314 55.2868 221.251C55.5781 221.185 55.8708 221.133 56.1648 221.094C56.5496 221.045 56.8615 221.008 57.1006 220.983C57.3424 220.955 57.5183 220.91 57.6282 220.847C57.7409 220.784 57.7972 220.674 57.7972 220.517V220.484C57.7972 220.077 57.6859 219.761 57.4633 219.536C57.2435 219.311 56.9096 219.198 56.4616 219.198C55.9972 219.198 55.6331 219.3 55.3693 219.503C55.1055 219.706 54.92 219.924 54.8128 220.154L53.8894 219.825C54.0543 219.44 54.2742 219.14 54.549 218.926C54.8265 218.709 55.1288 218.558 55.4558 218.473C55.7856 218.385 56.1099 218.341 56.4286 218.341C56.632 218.341 56.8656 218.365 57.1294 218.415C57.396 218.462 57.6529 218.559 57.9002 218.708C58.1503 218.856 58.3578 219.08 58.5227 219.379C58.6876 219.679 58.77 220.08 58.77 220.583V224.755H57.7972V223.897H57.7477C57.6818 224.035 57.5718 224.182 57.418 224.338C57.2641 224.495 57.0593 224.628 56.8038 224.738C56.5482 224.848 56.2363 224.903 55.868 224.903ZM56.0164 224.029C56.4012 224.029 56.7254 223.954 56.9893 223.802C57.2558 223.651 57.4564 223.456 57.5911 223.217C57.7285 222.978 57.7972 222.727 57.7972 222.463V221.572C57.756 221.622 57.6653 221.667 57.5251 221.708C57.3877 221.747 57.2283 221.781 57.047 221.812C56.8683 221.839 56.6938 221.864 56.5235 221.886C56.3558 221.905 56.2198 221.921 56.1154 221.935C55.8625 221.968 55.6262 222.022 55.4064 222.096C55.1893 222.167 55.0134 222.276 54.8787 222.422C54.7468 222.564 54.6809 222.76 54.6809 223.007C54.6809 223.345 54.8059 223.601 55.056 223.774C55.3088 223.944 55.629 224.029 56.0164 224.029ZM61.5184 220.946V224.755H60.5456V218.423H61.4854V219.412H61.5679C61.7163 219.091 61.9416 218.833 62.2439 218.637C62.5462 218.44 62.9364 218.341 63.4146 218.341C63.8433 218.341 64.2184 218.429 64.5399 218.605C64.8614 218.778 65.1115 219.041 65.2901 219.396C65.4688 219.748 65.5581 220.193 65.5581 220.732V224.755H64.5853V220.797C64.5853 220.3 64.4561 219.913 64.1978 219.635C63.9395 219.355 63.585 219.215 63.1343 219.215C62.8237 219.215 62.5462 219.282 62.3016 219.417C62.0598 219.551 61.8688 219.748 61.7286 220.006C61.5885 220.264 61.5184 220.578 61.5184 220.946Z" fill="#615E83"/>
<rect x="160.692" y="205.474" width="64.0196" height="25.6078" rx="12.8039" fill="#007BFF"/>
<path d="M176.557 213.835H177.777L180.646 220.843H180.745L183.614 213.835H184.834V222.277H183.877V215.863H183.795L181.157 222.277H180.233L177.595 215.863H177.513V222.277H176.557V213.835ZM188.615 222.426C188.214 222.426 187.849 222.35 187.522 222.199C187.195 222.045 186.936 221.824 186.743 221.535C186.551 221.244 186.455 220.892 186.455 220.48C186.455 220.117 186.526 219.823 186.669 219.598C186.812 219.37 187.003 219.191 187.242 219.062C187.481 218.933 187.745 218.837 188.034 218.774C188.325 218.708 188.617 218.656 188.912 218.617C189.296 218.568 189.608 218.53 189.847 218.506C190.089 218.478 190.265 218.433 190.375 218.37C190.488 218.307 190.544 218.197 190.544 218.04V218.007C190.544 217.6 190.433 217.284 190.21 217.059C189.99 216.834 189.656 216.721 189.208 216.721C188.744 216.721 188.38 216.823 188.116 217.026C187.852 217.229 187.667 217.446 187.559 217.677L186.636 217.347C186.801 216.963 187.021 216.663 187.296 216.449C187.573 216.232 187.875 216.081 188.203 215.995C188.532 215.907 188.857 215.863 189.175 215.863C189.379 215.863 189.612 215.888 189.876 215.938C190.143 215.984 190.4 216.082 190.647 216.23C190.897 216.379 191.104 216.603 191.269 216.902C191.434 217.202 191.517 217.603 191.517 218.106V222.277H190.544V221.42H190.494C190.428 221.557 190.319 221.704 190.165 221.861C190.011 222.018 189.806 222.151 189.55 222.261C189.295 222.371 188.983 222.426 188.615 222.426ZM188.763 221.552C189.148 221.552 189.472 221.476 189.736 221.325C190.002 221.174 190.203 220.979 190.338 220.74C190.475 220.501 190.544 220.249 190.544 219.986V219.095C190.503 219.145 190.412 219.19 190.272 219.231C190.134 219.27 189.975 219.304 189.794 219.334C189.615 219.362 189.441 219.386 189.27 219.408C189.103 219.428 188.966 219.444 188.862 219.458C188.609 219.491 188.373 219.545 188.153 219.619C187.936 219.69 187.76 219.799 187.625 219.944C187.494 220.087 187.428 220.282 187.428 220.53C187.428 220.868 187.553 221.123 187.803 221.296C188.055 221.467 188.376 221.552 188.763 221.552ZM193.292 222.277V215.946H194.232V216.902H194.298C194.413 216.589 194.622 216.335 194.925 216.14C195.227 215.945 195.568 215.847 195.947 215.847C196.018 215.847 196.108 215.848 196.215 215.851C196.322 215.854 196.403 215.858 196.458 215.863V216.853C196.425 216.845 196.35 216.832 196.231 216.816C196.116 216.796 195.994 216.787 195.864 216.787C195.557 216.787 195.282 216.851 195.04 216.981C194.801 217.107 194.611 217.283 194.471 217.508C194.334 217.731 194.265 217.985 194.265 218.271V222.277H193.292ZM199.991 222.409C199.397 222.409 198.886 222.269 198.457 221.989C198.029 221.709 197.699 221.323 197.468 220.831C197.237 220.339 197.122 219.777 197.122 219.145C197.122 218.502 197.24 217.934 197.476 217.442C197.715 216.948 198.048 216.561 198.474 216.284C198.902 216.004 199.403 215.863 199.974 215.863C200.419 215.863 200.821 215.946 201.178 216.111C201.535 216.276 201.828 216.507 202.056 216.803C202.284 217.1 202.425 217.446 202.48 217.842H201.508C201.433 217.554 201.269 217.298 201.013 217.075C200.76 216.85 200.419 216.737 199.991 216.737C199.611 216.737 199.279 216.836 198.993 217.034C198.71 217.229 198.489 217.505 198.329 217.863C198.173 218.217 198.095 218.634 198.095 219.112C198.095 219.601 198.171 220.027 198.325 220.39C198.482 220.752 198.702 221.034 198.985 221.235C199.271 221.435 199.606 221.535 199.991 221.535C200.244 221.535 200.473 221.492 200.679 221.404C200.885 221.316 201.06 221.189 201.203 221.024C201.345 220.859 201.447 220.662 201.508 220.431H202.48C202.425 220.805 202.289 221.141 202.072 221.441C201.858 221.737 201.574 221.974 201.219 222.15C200.867 222.323 200.458 222.409 199.991 222.409ZM204.875 218.469V222.277H203.903V213.835H204.875V216.935H204.958C205.106 216.608 205.329 216.349 205.626 216.156C205.925 215.961 206.324 215.863 206.821 215.863C207.252 215.863 207.63 215.95 207.955 216.123C208.279 216.294 208.53 216.556 208.709 216.91C208.89 217.262 208.981 217.71 208.981 218.254V222.277H208.008V218.32C208.008 217.817 207.878 217.428 207.617 217.154C207.358 216.876 207 216.737 206.541 216.737C206.222 216.737 205.936 216.805 205.683 216.939C205.433 217.074 205.235 217.27 205.09 217.529C204.947 217.787 204.875 218.1 204.875 218.469Z" fill="white"/>
<path d="M111.892 224.755V216.313H116.954V217.219H112.914V220.072H116.574V220.979H112.914V224.755H111.892ZM120.762 224.887C120.152 224.887 119.626 224.752 119.184 224.483C118.744 224.211 118.405 223.831 118.165 223.345C117.929 222.856 117.811 222.287 117.811 221.638C117.811 220.99 117.929 220.418 118.165 219.924C118.405 219.426 118.737 219.039 119.163 218.761C119.592 218.481 120.092 218.341 120.663 218.341C120.993 218.341 121.319 218.396 121.64 218.506C121.962 218.616 122.255 218.794 122.518 219.041C122.782 219.286 122.992 219.61 123.149 220.014C123.306 220.418 123.384 220.916 123.384 221.506V221.919H118.503V221.078H122.395C122.395 220.721 122.323 220.402 122.18 220.121C122.04 219.841 121.84 219.62 121.579 219.458C121.32 219.296 121.015 219.215 120.663 219.215C120.276 219.215 119.941 219.311 119.658 219.503C119.377 219.693 119.162 219.94 119.011 220.245C118.859 220.55 118.784 220.877 118.784 221.226V221.787C118.784 222.265 118.866 222.67 119.031 223.003C119.199 223.333 119.431 223.584 119.728 223.757C120.025 223.928 120.369 224.013 120.762 224.013C121.018 224.013 121.249 223.977 121.455 223.906C121.664 223.831 121.844 223.721 121.995 223.576C122.146 223.427 122.263 223.243 122.345 223.023L123.285 223.287C123.186 223.606 123.02 223.886 122.786 224.128C122.553 224.367 122.264 224.554 121.921 224.689C121.577 224.821 121.191 224.887 120.762 224.887ZM124.996 224.755V216.313H125.969V219.429H126.051C126.123 219.319 126.221 219.179 126.348 219.008C126.477 218.835 126.661 218.681 126.9 218.547C127.142 218.409 127.469 218.341 127.881 218.341C128.414 218.341 128.884 218.474 129.291 218.741C129.698 219.007 130.015 219.385 130.243 219.874C130.471 220.363 130.585 220.94 130.585 221.605C130.585 222.276 130.471 222.857 130.243 223.349C130.015 223.838 129.699 224.217 129.295 224.487C128.891 224.753 128.425 224.887 127.898 224.887C127.491 224.887 127.165 224.819 126.921 224.685C126.676 224.547 126.488 224.392 126.356 224.219C126.224 224.043 126.123 223.897 126.051 223.782H125.936V224.755H124.996ZM125.952 221.589C125.952 222.067 126.022 222.489 126.162 222.854C126.303 223.217 126.507 223.502 126.777 223.708C127.046 223.911 127.376 224.013 127.766 224.013C128.173 224.013 128.512 223.906 128.784 223.691C129.059 223.474 129.265 223.183 129.402 222.817C129.542 222.449 129.613 222.04 129.613 221.589C129.613 221.144 129.544 220.743 129.406 220.385C129.272 220.025 129.067 219.741 128.792 219.532C128.52 219.32 128.178 219.215 127.766 219.215C127.37 219.215 127.038 219.315 126.768 219.516C126.499 219.713 126.296 219.991 126.158 220.348C126.021 220.703 125.952 221.116 125.952 221.589Z" fill="#615E83"/>
<path d="M255.987 224.755H254.915L258.015 216.313H259.07L262.17 224.755H261.098L258.576 217.648H258.51L255.987 224.755ZM256.383 221.457H260.703V222.364H256.383V221.457ZM263.353 227.129V218.423H264.293V219.429H264.408C264.48 219.319 264.579 219.179 264.705 219.008C264.834 218.835 265.018 218.681 265.257 218.547C265.499 218.409 265.826 218.341 266.239 218.341C266.772 218.341 267.242 218.474 267.648 218.741C268.055 219.007 268.372 219.385 268.6 219.874C268.829 220.363 268.943 220.94 268.943 221.605C268.943 222.276 268.829 222.857 268.6 223.349C268.372 223.838 268.056 224.217 267.652 224.487C267.248 224.753 266.783 224.887 266.255 224.887C265.848 224.887 265.523 224.819 265.278 224.685C265.033 224.547 264.845 224.392 264.713 224.219C264.581 224.043 264.48 223.897 264.408 223.782H264.326V227.129H263.353ZM264.309 221.589C264.309 222.067 264.379 222.489 264.52 222.854C264.66 223.217 264.864 223.502 265.134 223.708C265.403 223.911 265.733 224.013 266.123 224.013C266.53 224.013 266.869 223.906 267.141 223.691C267.416 223.474 267.622 223.183 267.76 222.817C267.9 222.449 267.97 222.04 267.97 221.589C267.97 221.144 267.901 220.743 267.764 220.385C267.629 220.025 267.424 219.741 267.15 219.532C266.877 219.32 266.535 219.215 266.123 219.215C265.727 219.215 265.395 219.315 265.126 219.516C264.856 219.713 264.653 219.991 264.515 220.348C264.378 220.703 264.309 221.116 264.309 221.589ZM270.427 224.755V218.423H271.366V219.379H271.432C271.548 219.066 271.757 218.812 272.059 218.617C272.361 218.422 272.702 218.324 273.081 218.324C273.153 218.324 273.242 218.326 273.349 218.328C273.456 218.331 273.537 218.335 273.592 218.341V219.33C273.559 219.322 273.484 219.309 273.366 219.293C273.25 219.274 273.128 219.264 272.999 219.264C272.691 219.264 272.416 219.329 272.174 219.458C271.935 219.584 271.746 219.76 271.605 219.985C271.468 220.208 271.399 220.462 271.399 220.748V224.755H270.427Z" fill="#615E83"/>
<path d="M320.644 216.313H321.864L324.733 223.32H324.832L327.701 216.313H328.921V224.755H327.964V218.341H327.882L325.244 224.755H324.32L321.682 218.341H321.6V224.755H320.644V216.313ZM332.702 224.903C332.3 224.903 331.936 224.828 331.609 224.676C331.282 224.522 331.023 224.301 330.83 224.013C330.638 223.721 330.542 223.37 330.542 222.957C330.542 222.595 330.613 222.301 330.756 222.075C330.899 221.847 331.09 221.669 331.329 221.539C331.568 221.41 331.832 221.314 332.12 221.251C332.412 221.185 332.704 221.133 332.998 221.094C333.383 221.045 333.695 221.008 333.934 220.983C334.176 220.955 334.352 220.91 334.462 220.847C334.575 220.784 334.631 220.674 334.631 220.517V220.484C334.631 220.077 334.52 219.761 334.297 219.536C334.077 219.311 333.743 219.198 333.295 219.198C332.831 219.198 332.467 219.3 332.203 219.503C331.939 219.706 331.754 219.924 331.646 220.154L330.723 219.825C330.888 219.44 331.108 219.14 331.383 218.926C331.66 218.709 331.962 218.558 332.289 218.473C332.619 218.385 332.944 218.341 333.262 218.341C333.466 218.341 333.699 218.365 333.963 218.415C334.23 218.462 334.487 218.559 334.734 218.708C334.984 218.856 335.191 219.08 335.356 219.379C335.521 219.679 335.604 220.08 335.604 220.583V224.755H334.631V223.897H334.581C334.515 224.035 334.405 224.182 334.252 224.338C334.098 224.495 333.893 224.628 333.637 224.738C333.382 224.848 333.07 224.903 332.702 224.903ZM332.85 224.029C333.235 224.029 333.559 223.954 333.823 223.802C334.089 223.651 334.29 223.456 334.425 223.217C334.562 222.978 334.631 222.727 334.631 222.463V221.572C334.59 221.622 334.499 221.667 334.359 221.708C334.221 221.747 334.062 221.781 333.881 221.812C333.702 221.839 333.527 221.864 333.357 221.886C333.189 221.905 333.053 221.921 332.949 221.935C332.696 221.968 332.46 222.022 332.24 222.096C332.023 222.167 331.847 222.276 331.712 222.422C331.58 222.564 331.515 222.76 331.515 223.007C331.515 223.345 331.64 223.601 331.89 223.774C332.142 223.944 332.463 224.029 332.85 224.029ZM337.779 227.129C337.614 227.129 337.467 227.115 337.338 227.088C337.209 227.063 337.12 227.038 337.07 227.014L337.317 226.156C337.554 226.217 337.763 226.239 337.944 226.222C338.125 226.206 338.286 226.125 338.426 225.979C338.569 225.836 338.7 225.604 338.818 225.282L338.999 224.788L336.658 218.423H337.713L339.461 223.469H339.527L341.275 218.423H342.33L339.642 225.678C339.521 226.005 339.372 226.276 339.193 226.49C339.014 226.707 338.807 226.868 338.571 226.972C338.337 227.077 338.073 227.129 337.779 227.129Z" fill="#615E83"/>
<g style="mix-blend-mode:multiply" opacity="0.33">
<path d="M61.7862 131.991L29.0729 154.819V201.693H360.431V158.52C353.713 154.079 339.062 144.238 334.197 140.405C328.117 135.614 316.824 137.834 309.006 137.717C301.188 137.6 297.714 133.159 298.061 126.147C298.408 119.135 296.497 119.369 290.938 116.564C286.49 114.32 278.777 118.59 275.476 121.005C264.068 128.718 239.687 145.22 233.433 149.521C227.178 153.822 220.866 151.313 218.492 149.521C208.763 143.171 187.255 129.092 179.055 123.576C170.855 118.06 163.245 121.278 160.466 123.576C157.454 125.524 150.493 129.934 146.741 131.991C142.05 134.562 130.584 132.809 124.156 131.991C117.728 131.172 114.774 130.471 107.651 135.029C100.528 139.587 95.7505 139.996 83.8498 131.991C74.3293 125.586 65.1739 129.322 61.7862 131.991Z" fill="url(#paint0_linear_6_122)"/>
</g>
<path d="M30.5204 154.819L62.9481 131.991C66.3062 129.322 75.3817 125.586 84.8191 131.991C96.6159 139.996 101.352 139.587 108.413 135.029C115.473 130.471 118.401 131.172 124.773 131.991C131.145 132.809 142.511 134.562 147.161 131.991C150.881 129.934 157.781 125.524 160.766 123.576C163.521 121.278 171.064 118.06 179.193 123.576C187.322 129.092 208.642 143.171 218.286 149.521C220.639 151.313 226.897 153.822 233.096 149.521C239.296 145.22 263.464 128.718 274.772 121.005C278.044 118.59 285.691 114.32 290.099 116.564C295.61 119.369 297.505 119.135 297.16 126.147C296.816 133.159 300.26 137.6 308.01 137.717C315.759 137.834 326.953 135.614 332.981 140.405C337.803 144.238 352.326 154.079 358.985 158.52" stroke="#007BFF" stroke-width="2.90196" stroke-linecap="round" stroke-linejoin="round"/>
<line x1="193.79" y1="133.549" x2="193.79" y2="196.585" stroke="#007BFF" stroke-width="2.17647" stroke-linecap="round"/>
<g filter="url(#filter2_d_6_122)">
<ellipse cx="193.593" cy="132.461" rx="8.10092" ry="5.44942" fill="#007BFF"/>
<path d="M193.593 128.099C195.643 128.099 197.451 128.661 198.714 129.511C199.984 130.365 200.606 131.428 200.606 132.461C200.606 133.493 199.984 134.557 198.714 135.411C197.451 136.261 195.643 136.822 193.593 136.822C191.543 136.822 189.736 136.261 188.473 135.411C187.203 134.557 186.58 133.493 186.58 132.461C186.58 131.428 187.203 130.365 188.473 129.511C189.736 128.661 191.543 128.099 193.593 128.099Z" stroke="white" stroke-width="2.17647"/>
</g>
<path d="M38.6869 30.8501H35.1679V43.9831H32.8219V30.8501H29.3029V28.6421H38.6869V30.8501ZM39.8875 43.9831V34.3001H42.1415V35.1741C42.4329 34.8368 42.7472 34.5684 43.0845 34.3691C43.4525 34.1544 43.9125 34.0471 44.4645 34.0471C45.1239 34.0471 45.7142 34.2004 46.2355 34.5071L45.3155 36.5541C44.9475 36.3241 44.5642 36.2091 44.1655 36.2091C43.5675 36.2091 43.0999 36.3854 42.7625 36.7381C42.3485 37.1828 42.1415 37.9264 42.1415 38.9691V43.9831H39.8875ZM53.5905 40.7171L55.4765 41.7751C55.0472 42.5418 54.5029 43.1321 53.8435 43.5461C53.0922 44.0368 52.1415 44.2821 50.9915 44.2821C49.6422 44.2821 48.5535 43.8681 47.7255 43.0401C46.7749 42.0894 46.2995 40.8551 46.2995 39.3371C46.2995 37.7424 46.8132 36.4161 47.8405 35.3581C48.7145 34.4841 49.7955 34.0471 51.0835 34.0471C52.3409 34.0471 53.3759 34.4688 54.1885 35.3121C55.0932 36.2474 55.5455 37.6121 55.5455 39.4061V39.6821H48.5995C48.6609 40.4948 48.9369 41.1464 49.4275 41.6371C49.8415 42.0511 50.4165 42.2581 51.1525 42.2581C51.7505 42.2581 52.2642 42.0971 52.6935 41.7751C53.0462 41.4991 53.3452 41.1464 53.5905 40.7171ZM48.7605 37.8421H53.2455C53.1535 37.3054 52.9235 36.8684 52.5555 36.5311C52.1569 36.1631 51.6509 35.9791 51.0375 35.9791C50.3935 35.9791 49.8645 36.1861 49.4505 36.6001C49.1132 36.9068 48.8832 37.3208 48.7605 37.8421ZM57.8782 43.9831V34.3001H60.1322V35.1971C60.8222 34.4304 61.6962 34.0471 62.7542 34.0471C64.0269 34.0471 64.9776 34.4841 65.6062 35.3581C66.0049 35.9254 66.2042 36.8224 66.2042 38.0491V43.9831H63.9502V38.6011C63.9502 38.0184 63.9042 37.5431 63.8122 37.1751C63.7202 36.8071 63.5746 36.5541 63.3752 36.4161C63.1759 36.2628 62.9919 36.1708 62.8232 36.1401C62.6699 36.0941 62.4552 36.0711 62.1792 36.0711C61.8572 36.0711 61.5966 36.1018 61.3972 36.1631C61.2132 36.2091 61.0062 36.3318 60.7762 36.5311C60.5616 36.7151 60.4006 37.0448 60.2932 37.5201C60.1859 37.9801 60.1322 38.5858 60.1322 39.3371V43.9831H57.8782ZM76.1483 35.4271V27.2161H78.4023V43.9831H76.1483V42.9711C75.397 43.8451 74.431 44.2821 73.2503 44.2821C71.8243 44.2821 70.682 43.7761 69.8233 42.7641C68.98 41.7521 68.5583 40.5408 68.5583 39.1301C68.5583 37.5968 69.0106 36.3701 69.9153 35.4501C70.8353 34.5148 71.9546 34.0471 73.2733 34.0471C74.4846 34.0471 75.443 34.5071 76.1483 35.4271ZM73.5493 36.0711C72.752 36.0711 72.1003 36.3701 71.5943 36.9681C71.1036 37.5661 70.8583 38.3021 70.8583 39.1761C70.8583 40.0348 71.1036 40.7631 71.5943 41.3611C72.1003 41.9591 72.752 42.2581 73.5493 42.2581C74.316 42.2581 74.96 41.9898 75.4813 41.4531C76.018 40.9164 76.2863 40.1651 76.2863 39.1991C76.2863 38.2024 76.018 37.4358 75.4813 36.8991C74.96 36.3471 74.316 36.0711 73.5493 36.0711ZM87.1716 35.7491L85.4926 36.8531C85.1553 36.3011 84.6953 36.0251 84.1126 36.0251C83.8213 36.0251 83.5913 36.1094 83.4226 36.2781C83.2846 36.4161 83.2156 36.5848 83.2156 36.7841C83.2156 37.0141 83.3229 37.1981 83.5376 37.3361C83.5836 37.3668 83.6296 37.3974 83.6756 37.4281C83.7216 37.4434 83.8059 37.4818 83.9286 37.5431C84.0513 37.6044 84.1739 37.6658 84.2966 37.7271L85.4466 38.3021C86.0906 38.6241 86.5429 38.9231 86.8036 39.1991C87.2789 39.6744 87.5166 40.2724 87.5166 40.9931C87.5166 41.8518 87.2329 42.5878 86.6656 43.2011C86.0063 43.9218 85.1016 44.2821 83.9516 44.2821C83.0929 44.2821 82.3953 44.0751 81.8586 43.6611C81.2759 43.2318 80.8619 42.6414 80.6166 41.8901L82.4566 41.0161C82.6099 41.4608 82.7863 41.7674 82.9856 41.9361C83.2309 42.1814 83.5606 42.3041 83.9746 42.3041C84.3733 42.3041 84.6799 42.1968 84.8946 41.9821C85.1093 41.7674 85.2166 41.5144 85.2166 41.2231C85.2166 40.9471 85.1169 40.7018 84.9176 40.4871C84.7029 40.2724 84.3809 40.0731 83.9516 39.8891L83.1236 39.4981C82.4796 39.1914 82.0349 38.9154 81.7896 38.6701C81.3296 38.2254 81.0996 37.6811 81.0996 37.0371C81.0996 36.2244 81.3679 35.5344 81.9046 34.9671C82.4873 34.3538 83.2769 34.0471 84.2736 34.0471C84.9636 34.0471 85.5616 34.2158 86.0676 34.5531C86.5276 34.8444 86.8956 35.2431 87.1716 35.7491Z" fill="#9291A5"/>
</g>
<defs>
<filter id="filter0_dd_6_122" x="1.35294" y="0.901733" width="387" height="246" filterUnits="userSpaceOnUse" color-interpolation-filters="sRGB">
<feFlood flood-opacity="0" result="BackgroundImageFix"/>
<feColorMatrix in="SourceAlpha" type="matrix" values="0 0 0 0 0 0 0 0 0 0 0 0 0 0 0 0 0 0 127 0" result="hardAlpha"/>
<feOffset dy="1"/>
<feGaussianBlur stdDeviation="1"/>
<feColorMatrix type="matrix" values="0 0 0 0 0.0627451 0 0 0 0 0.0941176 0 0 0 0 0.156863 0 0 0 0.06 0"/>
<feBlend mode="normal" in2="BackgroundImageFix" result="effect1_dropShadow_6_122"/>
<feColorMatrix in="SourceAlpha" type="matrix" values="0 0 0 0 0 0 0 0 0 0 0 0 0 0 0 0 0 0 127 0" result="hardAlpha"/>
<feOffset dy="1"/>
<feGaussianBlur stdDeviation="1.5"/>
<feColorMatrix type="matrix" values="0 0 0 0 0.0627451 0 0 0 0 0.0941176 0 0 0 0 0.156863 0 0 0 0.1 0"/>
<feBlend mode="normal" in2="effect1_dropShadow_6_122" result="effect2_dropShadow_6_122"/>
<feBlend mode="normal" in="SourceGraphic" in2="effect2_dropShadow_6_122" result="shape"/>
</filter>
<filter id="filter1_d_6_122" x="-4.76837e-06" y="1.72853e-05" width="389.706" height="248.706" filterUnits="userSpaceOnUse" color-interpolation-filters="sRGB">
<feFlood flood-opacity="0" result="BackgroundImageFix"/>
<feColorMatrix in="SourceAlpha" type="matrix" values="0 0 0 0 0 0 0 0 0 0 0 0 0 0 0 0 0 0 127 0" result="hardAlpha"/>
<feOffset dy="1.45098"/>
<feGaussianBlur stdDeviation="2.17647"/>
<feComposite in2="hardAlpha" operator="out"/>
<feColorMatrix type="matrix" values="0 0 0 0 0.0509804 0 0 0 0 0.0392157 0 0 0 0 0.172549 0 0 0 0.08 0"/>
<feBlend mode="normal" in2="BackgroundImageFix" result="effect1_dropShadow_6_122"/>
<feBlend mode="normal" in="SourceGraphic" in2="effect1_dropShadow_6_122" result="shape"/>
</filter>
<filter id="filter2_d_6_122" x="179.689" y="126.286" width="27.8097" height="22.5067" filterUnits="userSpaceOnUse" color-interpolation-filters="sRGB">
<feFlood flood-opacity="0" result="BackgroundImageFix"/>
<feColorMatrix in="SourceAlpha" type="matrix" values="0 0 0 0 0 0 0 0 0 0 0 0 0 0 0 0 0 0 127 0" result="hardAlpha"/>
<feOffset dy="5.07843"/>
<feGaussianBlur stdDeviation="2.90196"/>
<feComposite in2="hardAlpha" operator="out"/>
<feColorMatrix type="matrix" values="0 0 0 0 0.290196 0 0 0 0 0.227451 0 0 0 0 1 0 0 0 0.13 0"/>
<feBlend mode="normal" in2="BackgroundImageFix" result="effect1_dropShadow_6_122"/>
<feBlend mode="normal" in="SourceGraphic" in2="effect1_dropShadow_6_122" result="shape"/>
</filter>
<linearGradient id="paint0_linear_6_122" x1="194.752" y1="153.951" x2="194.752" y2="201.693" gradientUnits="userSpaceOnUse">
<stop stop-color="#007BFF" stop-opacity="0.52"/>
<stop offset="0.46679" stop-color="#C6D2FD"/>
<stop offset="1" stop-color="white" stop-opacity="0.31"/>
</linearGradient>
</defs>
</svg>
